<?xml version="1.0" encoding="utf-8"?>
<!-- Generator: Adobe Illustrator 26.3.1, SVG Export Plug-In . SVG Version: 6.00 Build 0)  -->
<svg version="1.1" xmlns="http://www.w3.org/2000/svg" xmlns:xlink="http://www.w3.org/1999/xlink" x="0px" y="0px"
	 viewBox="0 0 733 165" enable-background="new 0 0 733 165" xml:space="preserve">
<g id="Layer_2">
</g>
<g id="Layer_3_00000147910158065409880290000015532870407918890899_">
</g>
<g id="Layer_1">
	<path fill="#FFFFFF" d="M0,0v104c0,5.1,3.1,9.9,7.8,12.1l44.5,21l0.4,0.2l44.7-21.2c4.8-2.3,7.8-7,7.8-12.1V0H0z"/>
	<g id="Layer_1_00000081648312538012787590000018268031801841401515_">
	</g>
	<g>
		<path fill="#FFFFFF" d="M197.4,71.9c-0.2,21.5-10.8,32.3-30.3,32.3c-19.3,0-30.7-8.8-30.7-28.7c0-9,0-14,0-20.3
			c0-11.4-1.2-20.5-1.6-25.3c2.4,0.4,6,0.6,8.2,0.6s4.6-0.2,6.6-0.6c-1,10-1.4,23.3-1.4,37.1c0,19.9,3.6,31.1,22.1,31.1
			c19.9,0,20.3-19.7,20.3-36.1c0-14.8-0.2-25.3-0.8-32.1c1.6,0.4,3.2,0.6,4.8,0.6c1.4,0,2.8-0.2,4.2-0.6
			C198.2,37.8,197.6,55.3,197.4,71.9"/>
		<path fill="#FFFFFF" d="M265.6,65.3c-0.2,11.2-0.2,28.3,0,38.3c-0.8-0.2-1.8-0.4-2.6-0.4c-0.8,0-1.8,0.2-2.4,0.4
			c-15.2-18-32.3-36.5-49.5-54.5c-0.2,5.8-0.4,13.4-0.4,22.7c0,13,0.4,26.9,0.8,30.9c-1.4-0.4-3-0.6-4.2-0.6c-1.4,0-3,0.2-4.4,0.6
			c0.8-4,2.2-30.9,2.2-48.5c0-11.4-0.2-19.5-0.4-24.3c0.8,0.2,2,0.2,2.8,0.2s2-0.2,2.8-0.2c16,17.6,35.1,38.3,49.3,53.1
			c0-17.8,0-42.1-0.8-52.5c1.4,0.4,2.8,0.6,4.2,0.6s2.6-0.2,4-0.6C266.6,40.8,265.8,56.3,265.6,65.3"/>
		<path fill="#FFFFFF" d="M292.1,104.6c-9.2,0-18.5-4.4-23.1-7.6c1.8-1.4,2.6-1.8,4.6-4.6c1.4-2,2.4-5.2,2.4-5.2
			c1.8,5.6,7.6,11,17.8,11c10.2,0,17.4-7.6,17.4-14.8c0-17.6-38.5-9.6-38.5-33.7c0-13.2,11.6-20.3,26.9-20.3c8.2,0,15,2.6,19.7,5.8
			c-2.2,1.8-2.6,1.8-3.8,4c-1,1.6-2.4,5-2.4,5c-2-5-6.4-9.4-14.6-9.4c-8.4,0-14.2,5.2-14.2,11.6c0,17.6,40.1,10.6,39.9,33.3
			C324.2,97.2,311.3,104.6,292.1,104.6"/>
		<path fill="#FFFFFF" d="M397.6,103c-1.4-0.2-3-0.6-4.4-0.6s-3,0.4-4.4,0.6c-5-18.3-10.8-36.7-17.2-55.6h-0.2
			c-3.8,12-13.2,38.5-18.3,55.6c-1.4-0.2-2.8-0.6-4.4-0.6c-1.4,0-3,0.4-4.4,0.6c-3-11.4-7.2-27.9-12.8-45.7
			c-1.6-5.6-7.8-22.7-9.6-26.5c2.4,0.4,5.8,0.6,8,0.6s4.4-0.2,6.6-0.6c4.6,19.5,9.4,36.9,15.4,57.4h0.2
			c4.8-14.6,15.6-47.3,18.2-57.4c1.4,0.4,2.8,0.6,4.2,0.6c1.4,0,2.8-0.2,4.2-0.6c2.4,10.4,14,45.1,17.6,57.4h0.2
			c4.2-13.6,14.6-48.9,16.4-57.4c1.2,0.4,2.6,0.6,3.8,0.6c1.4,0,2.6-0.2,4-0.6C417.8,39.8,402.6,85.8,397.6,103"/>
	</g>
	<polygon points="100.6,30.2 4.7,30.2 4.7,4.5 100.6,4.5 	"/>
	<path fill="none" stroke="#000000" stroke-width="5.7269" stroke-miterlimit="10" d="M67.5,124.3"/>
	<path fill="#E2F4FD" d="M67.5,141.9"/>
	<path fill="#E2F4FD" d="M39.6,141.9"/>
	<path fill="none" stroke="#000000" stroke-width="5.7269" stroke-miterlimit="10" d="M67.5,141.9"/>
	<path fill="none" stroke="#000000" stroke-width="5.7269" stroke-miterlimit="10" d="M39.6,141.9"/>
	<path fill="none" stroke="#000000" stroke-width="6.183" stroke-miterlimit="10" d="M41.4,144.9"/>
	<g>
		<g>
			<g>
				<defs>
					<path id="SVGID_1_" d="M8.9,111.8c-2.6-1.2-4.2-3.6-4.2-6.4V30.2h95.9v75.4c0,2.8-1.6,5.2-4.2,6.4l-43.8,20.7L8.9,111.8
						L8.9,111.8z"/>
				</defs>
				<clipPath id="SVGID_00000155120220442543132580000012382838068184618166_">
					<use xlink:href="#SVGID_1_"  overflow="visible"/>
				</clipPath>
				<polygon clip-path="url(#SVGID_00000155120220442543132580000012382838068184618166_)" fill="#D94827" points="34,30.2 34,61.7 
					2.5,61.7 2.5,94.2 34,94.2 34,134.7 52.6,134.7 71.3,134.7 71.3,94.2 102.8,94.2 102.8,61.7 71.3,61.7 71.3,30.2 				"/>
			</g>
		</g>
	</g>
	<g id="Layer_4">
		<path fill-rule="evenodd" clip-rule="evenodd" fill="#B6A333" d="M54.2,70.3L54.2,70.3l0.6-0.6l0.2,0.4c0.6,1,1.6,1.6,3,1.6
			c0.4,0,1,0,1.4-0.2c1.4-0.2,3.2-0.6,4.8-1.2c2.2-0.6,4.6-1.2,6.2-1.2c1.2,0,3.8,0.6,3.8,2.4c0,1-0.4,1.6-1.2,2.4l0,0
			c-1.4,0.8-4.8,0.8-4.8,0.8c-0.8,0-3,0-3.8-0.8c-0.4-0.4-0.6-0.4-0.6-0.4c-0.6-0.2-1-0.2-1.6-0.2c-1.2,0-2.6,0.4-3.8,0.6
			c-1.2,0.4-2.4,0.6-3.4,0.6c0,0-0.2,0-0.4-0.2C54.2,73.9,54,71.1,54.2,70.3L54.2,70.3z M57,66.7c0.6-0.6,1.4-1,2-1
			c0.2,0,0.6,0,0.8,0.2c0.6,0.4,1,0.8,1.4,1.2c0.4,0.4,1,1,1.6,1.4H63v0.2c0,0.2,0,0.4-1.6,0.8c-0.4,0.2-1.6,0.4-2.2,0.4
			c-1.6,0-2.6-0.6-2.6-2C56.4,67.5,56.6,67.1,57,66.7L57,66.7z M35.2,92.8L35.2,92.8L35.2,92.8L35.2,92.8l0.2-0.2l0.2-0.2l0.2-0.2
			l0.2,0.2l-0.2-0.2V92h0.4L36,91.8v-0.2h0.4l-0.2-0.2l0.2-0.6v-0.2c0-0.2,0.2-0.4,0.2-0.6l0.2-0.2l0.2-0.2l0,0l0.2-0.2l0,0l0,0l0,0
			l0,0l0,0l0,0l0,0l0,0c0.4,0,0.6,0,1,0.2S39,90,39.8,90c0.4,0,0.8,0,1.2-0.2c0-0.2-0.2-0.4,0-0.8l0,0l0.4-0.2
			c0.4-0.2,0.8-0.2,1.2-0.4c0.4-0.2,0.6-0.4,1-0.4c0.2,0,0.2,0,0.4,0c0,0-0.2-0.2-0.2-0.4v-0.2l0,0c0.2-0.2,0.4-0.2,0.6-0.2l0,0
			L44.2,87c0-0.2,0.2-0.4,1.2-1c0.2-0.2,0.8-0.4,1-0.6c-0.2-0.2-0.6-0.6-0.6-1s0-0.4,0.2-0.6h0.2c0.4-0.2,1-0.4,1.2-0.6l0,0l0,0
			c0.2,0,0.4-0.2,0.8-0.2c1.2-0.4,3.4-1,4.4-1.4l0.4-0.2V82h-0.2l0,0H53v0.4v0.2v0.2V83l0,0c0,0.4,0.2,0.6,0.4,0.8l0.2,0.2
			c0.2,0.2,0.6,0.4,1.2,0.6c0.2,0,0.4,0,0.6,0c0.2,0,0.6,0,0.8,0c0.6,0,1.2,0,1.8,0s1,0.4,1,0.8c0,0.6-0.2,1.4-1.2,1.6
			c0.2,0.2-0.6,0.2-1.4,0.2l0,0c-1.2-0.2-1.6-0.4-2-1L54.2,86c-0.2-0.2-0.2-0.2-0.4-0.2s-0.4-0.2-0.6-0.2s-0.4-0.2-0.8-0.4L52.2,85
			L52,84.8l0,0c-0.2-0.4-0.4-0.4-0.6-0.4c-0.2,0-0.4,0-0.6,0.2l-0.2,0.2l-0.2-0.2c-0.4-0.2-1.4,0-1.8,0.4c-0.2,0.2-0.2,0.4-0.2,0.4
			h0.2h0.2l0,0H49h0.2h0.2l0,0h0.2l0,0h0.2H50l0,0h0.2l0,0v0.2l0,0l0,0l0,0l0,0v0.2l0,0c0,0.2,0,0.2,0,0.4c0,0.2-0.2,0.6-0.6,0.6
			h-0.2c-0.2,0-0.4-0.2-0.6-0.2c-0.6,0-1,0.4-1.2,1v0.2c0.6-0.2,1.2-0.2,1.8,0.2c0.4,0.2,0.4,0.8,0.4,1v0.2h-0.2
			c-0.8,0.2-1.2,0.6-1.6,1.6c0.8-0.4,1.6-0.4,2.4-0.4h0.2l0,0c0.4,0.4,1,0.6,1.4,0.2c0.4-0.2,0.8-0.6,1-1c0.4-0.4,0.6-0.6,0.8-0.6
			l0,0H54c0.2,0,0.2,0,0.4,0.2s0,0.6,0,0.8c-0.2,0.4-0.4,0.6-0.6,0.8c0,0,0.2,0,0.4,0c0.4,0,0.8,0,1-0.2h0.2l0.2-0.2H56h0.2l0.2,0.2
			c0,0.2,0,0.2,0,0.4l-0.2,0.4c0.6,0,1-0.2,1.2-0.6l0.2-0.4l0.4,0.4c0.2,0.2,0.2,0.2,0.4,0.4l0.2,0.2c0-0.4,0.2-1,0.8-1.2l0.4-0.4
			v1.4c0,0.2,0.2,0.6,0.4,0.8c0-0.2,0.2-0.4,0.2-0.6c0,0,0.2-0.4,0.4-0.4s0.4,0.2,0.6,0.6c0,0.2,0.2,0.2,0.2,0.4
			c0.2-0.4,0.6-1.2,0.8-1.2l0.2-0.2h0.2c0.2,0,0.2,0,0.4,0c0.4,0.2,1,0.2,1.4,0.2c-0.4-0.6-0.6-1-0.6-1.8v-0.2v-0.2
			c0.2-0.4,0.4-0.6,0.8-0.8l0,0c0.2-0.2,0.4-0.2,0.4-0.4c0.4-0.4,0.4-0.6,0.4-1c-0.2-0.4-0.4-0.6-0.8-0.8c-0.2-0.2-0.4-0.2-0.6-0.4
			C63.4,84.4,64,83,64,83l0.2-0.2l0.2-0.2l0.2,0.2c0.8,0.6,1.4,1.2,2.2,1.6c0.6,0.4,1.4,0.6,2.2,0.6c0.2,0,0.4,0,0.8,0
			c0.2,0,0.6,0,0.8,0c1.4,0,3,0.4,3,1.6c0,0.8-0.8,1.8-1.8,1.8h-0.2l0,0l0,0c-0.4-0.2-0.4-0.6-0.6-0.8c-0.2-0.4-0.2-0.6-0.4-0.6l0,0
			c-0.2,0-0.6,0.2-0.8,0.4l-0.6,0.4H69c-1.2-0.4-2-0.2-2.6,1l0,0c0.2,0,0.4,0,0.6,0c0.6,0,1.4,0.2,1.8,0.6l0,0v0.2
			c0,0.2-0.2,0.4-0.2,0.4s-0.2,0.2-0.6,0.6v0.2h-0.2c-0.6,0.2-1.4,1-1.4,2c0.8-0.4,1.6-0.6,2.6-0.6h0.2l0,0c0.2,0.2,0.2,0.6,0.2,0.8
			v0.2h-0.2c-0.6,0.2-1.2,0.4-1.8,0.6c0.4,0.4,1,0.6,1.8,0.6c0.6,0,1-0.2,1.4-0.4l0.2-0.2H71c0.6,0,1.2-0.2,1.4-0.4
			c0.2-0.2,0.2-0.6,0-1c0-0.2,0-0.4,0-0.4c0-0.2,0.2-0.2,0.4-0.2H73c0.4,0,0.6,0.2,0.8,0.4c0.2,0.4,0.4,1,0.4,1.4
			c0.2,0,0.6-0.2,0.8-0.6l0,0l0.2-0.2c0.2-0.2,0.2-0.4,0.2-0.6V92h0.2c0.8,0,1.4-0.2,2.2-0.8c-0.2,0-0.2-0.2-0.4-0.2l0,0
			c0,0-0.4-0.4-0.2-0.6l0,0c0.2-0.2,0.4-0.4,0.8-0.6c0.2,0,0.4-0.2,0.4-0.2c-0.2-0.2-0.2-0.2-0.2-0.4l0,0l0,0
			c0.2-0.2,0.4-0.4,0.6-0.4l0.2-0.2c-0.2,0-0.4-0.2-0.4-0.4V88l0,0c0,0,0.2-0.2,0.4-0.4c0.2-0.2,0.6-0.6,1-0.8l0,0
			c-0.4,0-0.8-0.2-1-0.4l-0.2-0.2V86c0.2-0.4,0.4-0.4,0.6-0.6c-0.2,0-0.2,0-0.4-0.2l0,0l0,0c-0.2-0.2,0-0.6,0.2-0.8
			c0-0.2,0.2-0.4,0.2-0.6l0,0h-0.2c-0.2,0-0.4,0-0.4-0.2c-0.2-0.2,0-0.4,0.2-0.6c0,0,0.2-0.2,0.2-0.4c-0.2,0-0.6,0.2-0.8,0.4
			c-0.6,0.2-1.2,0.6-2,0.6c-0.2,0-0.2,0-0.4,0h-0.2l-0.2-0.2l-0.2-0.2c-0.2-0.2-0.4-0.8-1.2-0.8H74c-0.6,0.4-1.6,1-2.4,1
			c-0.2,0-0.4,0-0.6-0.2l0,0l0,0l0,0c-0.4-0.4-0.6-1.2-0.8-1.8c0,0,0-0.2,0-0.4c0-0.4-0.2-1-0.4-1.2c-0.2-0.4-0.6-0.6-1.2-1
			c-0.8-0.4-1.4-1-1.8-2l0,0v-0.2L66.6,76l2.8,0.4h0.4l1.8-0.2l1.2-0.4l1-0.6l0.6-0.6l0.6-0.8l0,0l0,0l0,0l0,0l0.2-0.4l0,0l0,0v-0.2
			l0,0l0.2-0.8V72l0,0c0-0.2,0-0.4,0.2-0.4l0,0l0.2-0.2l0.2-0.2l0.2-0.2l0.2-0.2l0,0l0.2-0.2l0,0l0.2-0.2l0,0l0,0l0.2,0.2l-0.2-0.2
			l0,0l0.2,0.2l-0.2-0.2l0,0l0.2,0.2l-0.2-0.2l0.2-0.2l0,0V70l0,0l0,0l0,0v-0.2v-0.2l0,0v-0.2l0,0v-0.2l0,0V69l0,0c0,0,0-0.2,0-0.4
			l0,0v-0.2l0,0v-0.2V68l0,0v-0.2l0,0v-0.2l0,0l0,0c-0.4,0.4-0.8,0.6-1.2,0.6c-0.6,0-1-0.6-1.4-1.8C74.2,66.6,74,67,73.6,67l0,0l0,0
			l0,0c-0.4-0.2-0.8-0.8-1.2-1.2c-0.2-0.2-0.2-0.4-0.4-0.6v0.2l0,0l0,0v0.2l0,0l0,0l0,0l0,0l0,0l0,0l0,0l0,0l0,0l0,0l0,0l0,0l0,0
			l0,0h-0.2l0,0l0,0l-0.6-0.4l0,0l0.2-0.2l-0.2,0.2l-0.4-0.4l0.2-0.2l-0.2,0.2l0,0c0,0.2,0,0.4-0.2,0.8l0,0h-0.2c-0.2,0-0.4,0-0.6,0
			c-0.6,0-1.2-0.2-1.6-0.4l0,0c0,0.2,0,0.2-0.2,0.4l0,0c-0.2,0.2-0.4,0.2-0.6,0.2c0.2,0.2,0.2,0.6,0.2,1l0,0V67l0,0l0,0l0,0l0,0l0,0
			l0,0l-1.2,0.2l0.2,0.2l0,0l-0.4,0.2H66l0,0l0,0l0,0l0,0l0,0l0,0h-0.2h-0.4l0,0h-0.2H65l0,0l0,0l0,0l0,0l0,0l-0.2-0.2l0,0l0,0l0,0
			l0,0l0,0c0-0.2,0-0.2,0-0.4c0.2-0.2,0.6-0.4,1-0.4l0,0c-0.2-0.2-0.4-0.6-0.2-1.2c0.2-0.4,0.6-0.8,1.4-1.2c0.8-0.4,1.8-1,2-1.8
			c-0.2,0-0.4,0-0.6,0.2c-0.4,0.2-0.8,0.2-1.2,0.2c-0.4,0-0.6,0-0.8-0.2c-0.2-0.2-0.2-0.4-0.2-0.6C65,62.8,64,63.2,63,63l0,0
			c-0.4-0.2-0.8-0.6-1.4-1c-0.6-0.6-1.2-1.2-2-1.4v1h-0.4c-0.6,0-1.2,0-1.6,0c0.6,0,1.2,0.4,1.6,1.2c0.2,0.8-0.6,1.2-1.6,1.8
			c-0.6,0.4-1.4,0.8-2,1.4l-0.2,0.2L55.2,66c-0.2-0.2-0.6-0.4-0.8-0.8c-0.2-0.2-0.2-0.4-0.4-0.4h-0.6l0.4-0.6
			c0.4-0.4,0.6-0.8,0.6-1.2s-0.2-0.8-0.2-1L54,61.8C53.6,62,53.2,62,52.8,62c-0.6,0-1-0.2-1.2-0.6c0,0,0-0.2,0-0.4h-0.2l0,0
			c-1,0-2.2,0-2.8,0.6l-0.2,0.2l-0.2-0.2c-0.6-0.7-1.6-1.3-2.6-1.5l0,0l0,0l0,0c-0.2,0.6-0.6,0.8-1.4,0.8v0.2c0,0.2,0,0.2,0,0.4v0.4
			l-1-0.2c0,0-0.4-0.2-0.8-0.2c-0.2,0-0.6,0-0.8,0.2l0,0l0,0c-0.2,0-0.2,0-0.4,0v0.2l0,0c-0.2,0.8-0.8,1-1.2,1.2l0,0
			c0.2,0.2,0.2,0.2,0.4,0.4s0,0.6-0.8,1.4l0,0c0.2,0,0.2,0,0.4,0.2c0.4,0.2,0.4,0.6,0.4,0.6c-0.2,0.4-0.4,0.6-0.6,0.8
			c-0.2,0.2-0.4,0.4-0.6,0.8c0.2,0,0.2,0,0.4,0.2l0.4,0.2l-0.2,0.2l-0.2,0.2c-0.4,0.6-0.6,1.2-1,2h0.2v0.2c0,0.6-0.2,1-0.4,1.2l0,0
			l0,0l-0.2,0.2c-0.6,0-1-0.8-1.2-1.4c-0.2-0.4-0.6-1.6-0.6-2.6c0-2.6,0.4-3,0.6-3.2v-0.2c0-0.2-0.2-0.4-0.4-0.4s-0.6-0.2-0.8-0.4
			c-0.4-0.6-1.2-1-1.8-1c-0.2,0-0.4,0-0.6,0c0.2,0.2,0.6,0.4,0.8,0.8s0,0.6,0,0.8l0,0v0.4h-0.4h-0.2c-0.2,0-0.4,0-0.6-0.2
			c-0.4-0.2-1-0.6-1.6-0.6c-0.4,0-0.6,0-0.8,0.2v0.2l0.2-0.2l0.2,0.2l0,0l0,0l0,0l0,0l0.2,0.2l0,0l0,0l0,0l0,0l0,0l0,0l0,0l0,0l0,0
			l0,0l0,0l0,0v0.2v0.2v0.4l0,0l0,0l0,0l0,0l0,0l0,0l0,0l0,0l0,0l0,0l0,0l0,0H31h-0.2l0,0l0,0l0,0l0,0l-0.2-0.2l0.2-0.2l-0.2,0.2
			l0,0l0,0l-0.2-0.2l0.2-0.2l-0.2,0.2l0,0l0.2-0.2l-0.2,0.2l0,0l0.2-0.2l-0.2,0.2l0,0v0.2v0.2c0,0.6,0.2,1.2,0.6,1.4l0,0l0,0
			c0.4,0,0.4,0.4,0.6,0.4v0.2l0,0l0,0l0,0l0,0h0.2l0,0h0.4h0.2c0.2,0,0.4,0,0.4,0.2l0,0l0,0l0,0l0,0l0,0l0,0l0,0l0,0l0,0l0,0l0,0
			l0,0l0,0l0,0l0,0l0,0l0,0l-0.2,0.2l0,0h-0.2h-0.2l0,0H32l0,0l0,0h-0.2v-0.4v0.4v-0.4v0.4l0,0c0,0.2,0,0.4,0.2,0.4
			c0.2,0.2,0.6,0.4,1,0.4h0.2c0.2,0,0.4,0.2,0.6,0.4c0.2,0.2,0,0.6-0.2,0.8l0,0c-0.2,0.2-0.6,0.4-0.8,0.4c-0.4,0.2-0.8,0.4-1.2,0.8
			c0.6,0,0.8,0.4,0.8,0.6c0,0.4-0.2,0.6-0.4,0.8c0.2,0,0.4,0.2,0.6,0.2c0.4,0.4,0,0.8-0.4,1.2c-0.2,0.2-0.4,0.4-0.4,0.4
			c0.2,0,0.2,0,0.4,0c0.6,0,1,0.4,1.2,0.8l0,0c0,0.4-0.2,0.6-0.2,0.8h0.4c0.4,0,0.6,0.2,0.6,0.2c0.2,0.2,0,0.6-0.4,0.8
			c-0.2,0-0.2,0.2-0.4,0.4c0.2,0,0.6,0,0.8,0h0.2v0.2c0.2,0.2,0.2,0.4,0,0.8c-0.2,0.2-0.6,0.6-1,0.6c-0.2,2.8,0,2.8,0.4,2.8
			c0.6,0,1.4-0.2,2-0.4l0.4-0.2V81c0.2,0.8,1.2,1.2,1.6,1.2c0.2,0,0.6,0.2,0.6,0.4v0.2l0,0c-0.4,0.4-0.8,1.4-0.8,1.6l0,0
			c0.2,1-0.2,1.8-0.6,2.4c-0.4,0.6-1.2,0.8-2,0.8c-1,0-2.2-0.2-2.8-1.4c-0.2-0.6-0.6-0.8-1.2-0.4L30.8,86h-0.2
			c-0.2,0-0.4-0.2-0.6-0.2c-0.6,0-1.2,0.4-1.6,0.8c0.6,0,1.4,0.4,1.6,1c0.2,0.2,0.2,0.8-0.4,1.2l0,0h-0.2c-0.8,0-1.2,0.4-1.4,1.2
			c0.4,0,0.8-0.2,1.2-0.2c1.2,0,1.4,0.6,1.4,0.8c0,0.6-0.6,1.4-1.6,1.8c0.4,0.2,0.8,0.4,1.2,0.4c0.4,0,0.8-0.2,1.2-0.4
			c0.2,0,0.2,0,0.4-0.2c0.2-0.2,0.6,0,0.6,0l0,0c0.4,0.2,0.4,0,0.8-0.6c0-0.2,0.2-0.4,0.4-0.6c0,0,0.2-0.2,0.4-0.2s0.2,0,0.4,0
			s0.2,0.2,0.2,0.4l0,0v0.2v0.2v0.2V92l0,0l0,0v0.2l0,0l0,0l0,0l0,0l0,0v0.2V92l0,0v0.2v-0.4l0.2,0.2v-0.2L35.2,92.8v0.4V92.8
			L35.2,92.8L35.2,92.8z"/>
	</g>
	<g id="Layer_3">
		<path fill-rule="evenodd" clip-rule="evenodd" d="M78.3,87.4c-0.2,0.2-0.6,0.2-1.2,0.4c-0.6,0-1.2-0.2-1.6,0
			c0.2,0.6,1.8,0.4,3,0.4c-0.8,0.8-1.8,0.8-3,0.6c0,0,0,0.2,0.4,0.4c0.6,0.2,1.4,0.4,2,0.6c-0.6,0.2-1,0.6-2.8,0.2
			c0.2,0.6,1.6,1,2.2,1.2c-0.6,0.4-1.2,0.4-1.6,0.4c-0.8,0-3.2-1-4,0.6c0,0.2,0,0.2,0,0.4l0.2,0.2c0,0.2,0,0.4,0,0.6
			c-0.2,0.6-1.2,0.6-1.6,0.2c0,0-0.2-0.2-0.2-0.4c-0.2-0.2-0.2-0.4,0-0.8h0.2c1.2,0.2,0.6-1.2-0.4-0.8c-0.2,0.2-0.4,0.4-0.8,0.4
			c0,0-0.2,0-0.4-0.2c-0.4-0.4-0.4-1.4,0.2-1.6c0.2,0,0.2,0,0.2,0c0.4,0.4,1.4,0,1-0.6l-0.2-0.2c-0.2-0.2-1-0.2-0.8-0.8
			c0.2-0.4,0.6-1,1-1s0.4,0.4,0.6,0.8c0.2,0.2,0.6,0.8,1,0.8c1.4,0,2.4-2,1.8-3.4c-0.6-1.8-3-1.2-4.6-1.4c-4.4-0.6-5.6-3.2-8.2-6.6
			l-0.2-0.2c-0.2-0.2-0.4,0-0.8,0c-2,1-3.6,1.8-5.8,2.8c-0.4,0.2-0.6,0.4-1.2,0.6c0.4-0.6,1-1.4,1.4-1.8c-1.4,0.6-2.4,1.6-4.2,2.4
			c-0.2,0-0.4,0-0.4-0.2c0.2-0.4,0.6-0.6,0.8-1.6c-0.2-0.2-0.2,0-0.6,0.2c-1.8,1.4-3,2.4-4.6,2.2c0,0.4,0.6,1,1.8,1.4
			c-0.4,0.4-2.2,0.4-3-0.2c-0.2,0.8,1.4,1.4,1.8,1.4c-0.8,0.6-2.6,0-3.4-0.4c-0.2,0,0,0.2,0,0.2c0.4,1,2.6,1.2,3.4,1.2
			c-1.4,0.6-2.8,1-4.2,0.2c-0.4,0.4,1.4,1.4,1.8,1.6c0,0.4-1.8,0.2-3-0.8c-0.2,0.4,1.4,1.4,1.6,1.6c-0.6,0.6-2,0-2.6-0.2
			c-0.2,0-0.2-0.2-0.2-0.2l0,0c0.2,0.6,1,1,1.8,1.4c-1.4,0.6-2.4-0.2-3-0.6c-0.4,0-1.6,1.2-1.6,1.4c-0.2,0.4,0,0.6-0.2,1.2
			c-0.2,0.2-0.4,1-0.6,1h-0.2c-0.2-0.2,0-1-0.2-1.2c-1.6-0.6-1.4,0.8-2,1.4c-0.6,0.4-1.8-0.8-1.8-1.2c0-0.2,0.2-0.6,0.4-0.4l0.2,0.2
			h0.2c0.4,0,0.4-0.4,0.4-0.4c0-0.4-0.2-0.8-0.8-0.6c-0.2,0-0.2,0.4-0.4,0.4h-0.2C30.6,90,30.6,89,31,88.8c0.6-0.2,0.6,0.4,1.2,0.4
			c0.4-0.2,0.4-1.2,0-1.4c-0.4-0.2-0.8,0.4-1.2,0v-0.2c0.2-0.6,0.6-1.4,1-1.4s0.6,0.8,1,1.4c0,0,0.6,0.4,0.8,0.4
			c1.2,0.6,2.4,0.4,3.2,0c3-1.4,1.8-3.4,2.8-4c2.2-1,1.2-2,2-2.4c0.2,0.2,0.2,1,0.6,1.2c0.2-1,0.4-1.6,1.4-1.4
			c0.4,0.6,0.6,1,1.2,1.4c0.2,0,0.2-1.2,0.2-1.6c0.8,0.6,2.2,0.6,2,0.4s-0.8-1-0.8-1.4c0.8,0.6,2.2,0.2,2-0.2
			c-0.2-0.2-0.4-0.4-0.4-0.4c0.2-0.4,0.8-0.4,1.2-0.4c0-0.6-0.6-1.4,0-2.4c0.6,0.4,0.6,0.6,1.4,0.6c0-0.4-0.2-1.2,0.2-1.6
			c1.6,0,2.8,0,3.8-0.2c2.2-0.6,4-1.4,6.4-1.8c0.6-0.2,1.2-0.4,1.8-0.6c1,0,2,0.8,2.4,1.6c0.2,0.2,0.6,1,0.8,1.2
			c0.6,0.8,1.4,1.4,2.2,2c0.6,0.6,1.4,1.2,1.8,2c0.4,0.6,0.4,1.2,0.8,1.8c0.2,0.4,0.6,0.8,1,1.2c1.8,0.8,3.4-1.2,4.2-0.6l0.2,0.2
			l0.2,0.2c0.2,0,0.2,0,0.2,0c1.2,0,2-0.2,3-0.6c0.2,0-1.4,1.8-3,2c0.4,0.4,2.8-0.2,3.2-0.6c-0.4,1-1.8,1.6-3,1.4h-0.2
			c0,0,0,0.2,0.4,0.2c0.6,0.2,1.8,0.2,2.4,0.2c0,0.4-2.6,0.4-2.6,0.8c2-0.4,2.2,0.4,3,0C79.1,87,78.7,87.2,78.3,87.4L78.3,87.4z
			 M74.7,92c0,0.2,0,0.8-0.6,1c0-0.8,0-1-0.6-1.4C73.3,91.4,74.3,91.4,74.7,92L74.7,92L74.7,92z M67.9,93.8c0.6,0,1,0,1.4-0.4
			c0.2,0.2,0.4,0.4,0.6,0.4C69.5,94.4,68.1,94.4,67.9,93.8L67.9,93.8z M66.7,88.6c0.2-0.4,1.4-1.2,2-0.6c-0.2,0.2-0.4,0.8-0.4,0.8
			C67.7,88.4,67.3,88.4,66.7,88.6L66.7,88.6z M63.9,86.2c0.4,0.2,0.8,0.6,0.8,0.8c0.2,0.2,0.2,0.6-0.2,0.8c-0.6,0.4-2,1.6-0.6,3.2
			c-1.8-0.4-1.4-1.6-0.8-2.8c0-0.2,0-0.2-0.2-0.2c-1.2,1.2-0.8,2.4-1.4,3.4c-0.6-0.8-0.4-2.2,0.2-2.8c0,0,0,0-0.2,0
			c-0.8,0.4-1.4,2-1.8,2.8c-0.6-0.6,0-2.2,0-2.4c0,0,0-0.2-0.2,0c-0.8,0.6-1.2,1.6-1.6,2.6c-0.6-0.4-0.6-1.4-0.6-2
			c-0.6,0.4,0,1.8-1.2,2.2h-0.2c-0.2-0.2,0-0.4,0-0.4c0.2-0.4,0.4-0.8,0.2-1L55.8,90c-0.6-0.6-1.2-0.6-1.8-0.6s-1.6,0.6-2,1.4
			C51.8,91,51.6,91,51.2,91c-0.6-0.2-1.4-1.4-0.6-1.8c0.4-0.2,0.6,0.4,1,0.2c0.2-0.2,0.4-1-0.2-1.2c-0.2,0-0.4,0-0.4,0
			c-0.4,0.2-0.4,0.4-0.8,0.2L50,88.2c-0.2-0.6,0-1.6,0.8-1.6c0.2,0,0.2,0.2,0.2,0.2c0,0.4,0.2,0.4,0.4,0.4c0.8,0,0.8-0.4,0.6-1
			c0,0,0-0.2-0.2-0.2c-0.4,0-0.8,0.2-1-0.2c-0.4-0.4,0.4-1.4,0.8-1.4c0.6,0,0.6,0.8,1.2,1c0.4,0.2,1,0.2,1.4,0.6
			c0.2,0.2,0.2,0.2,0.4,0.4c0.4,1.4,2.6,1.4,3.8,1.2c2.4-0.4,3.8-2,2-3.2c-1-0.6-2.6-0.2-3.8-0.4c-1.8-0.4-2.2-1.2-1.8-2.4
			c0.2-0.4,1-0.6,1.2-0.6c0.2-0.2,1.2-0.8,1.2-0.4c-0.4,0.4-0.4,1.2-0.8,1.8v0.2c0,0.2,0.2,0.2,0.4,0c1-1,1-1.4,2.4-2.2
			c0.6,1.2,2,1.2,2.2,0c0.8,0.8,2,2,1.8,2.2c-0.2,0.6-0.6,1.6-0.6,2.4C62.7,85.6,63.5,86,63.9,86.2L63.9,86.2z M54.2,91.6
			c0.4-0.4,0.6-0.8,0.8-1.4c0.2-0.2,0.4,0,0.6,0.2C56.2,90.6,54.6,91.6,54.2,91.6L54.2,91.6z M48.8,85.2c0.4-0.6,1.2-0.8,1.6-0.4
			c-0.2,0.2-0.2,0.4-0.2,0.6H50C49.4,85.4,49.2,85.2,48.8,85.2L48.8,85.2z M30.8,92c0.2,0,0.4,0.6,0.6,0.8V93
			c-0.2,0.2-1.4,0.2-1.6,0.2C30,92.8,30.2,92.6,30.8,92L30.8,92L30.8,92z M30,87c-0.2,0-0.6-0.2-1.2,0c0.4-0.6,1-0.6,1.4-0.6l0,0
			C30.4,86.4,30.4,86.6,30,87L30,87L30,87z M36.4,80.4v-0.2h-0.2c-1.6,1-2.6,0.6-2.8,0.6c1.8-1,1.4-1.2,2.2-2.4
			c-0.4-0.4-1.4,0.6-2,0.6c0.4-0.2,0.4-0.4,0.8-1l0.2-0.4c0.4-0.8,1-1,1-1c-0.4-0.4-2.2,1-2.2,1c0.6-1.6,1.4-2,1.6-2.8v-0.2l0,0
			h-0.2c-1.2,1.2-2,1.4-2.8,1.4c0.2-0.8,2.8-1.4,3-2.8l0,0c-0.2,0-0.6,0.6-1.2,0.6C33.2,74,32.6,74,32.4,74c0.6-0.8,1-1,1.8-1.6
			c-0.6,0-1.6,0.4-2.2,0.4v-0.2l0.2-0.2c1-0.8,2.2-0.6,2.2-1.6c0-0.2-0.2-0.6-0.4-0.8h-0.2c-0.6,0-1.6,0-1.4-0.6
			c1,0.4,1.8-0.2,1.6-1.2c-0.2-0.6-0.8-0.6-1.6-0.4c-0.2,0-0.2,0-0.4,0c-0.4-0.4-0.2-1,0.2-1.2h0.2c0.4-0.2,0.8,0.4,1,0v-0.2
			c0-1-1-0.6-1-1c0.2-0.6,1-1,1.6-1c0.4,0-0.2,0.8,0.6,1c0.2,0,0.4,0,0.6-0.2c0.6-0.6-0.4-0.8-0.4-1c0-0.6,1.2-0.6,1.6-0.2
			c0.2,0.2,0.4,0.4,0.2,0.6s-0.6,0.6-0.8,1c-0.2,0.2-0.6,4,0,5.6c0,0.2,0.2,0.2,0.2,0.4c0.4,0.4,0.8,0.2,1,0.6
			c0.6,0.4,1.8,2.8,1.8,3c-0.4,0.6-0.8,0.8-1.2,1.2c0,0.4,0.6,0.4,0.8,0.4s-1,1.2-1.8,1.4c0,0,0,0,0,0.2c0.6,0.6,1.2,0.2,1.8,0.6
			c-0.4,0.8-0.6,0.8-1,1.6c0.2,0.4,1.8-0.2,2.2,0C39.6,81.8,36.8,82,36.4,80.4L36.4,80.4z M30.6,63.9c0.6-0.2,1.4,0.2,1.6,0.4
			c0,0,0,0.2-0.2,0.2c-0.2,0.2-0.2,0.4-0.4,0.4C31.2,63.9,30.4,64.1,30.6,63.9L30.6,63.9z M34,63.1c-0.2-0.2-0.4-0.4-0.6-0.6
			c0.6-0.2,1.4,0,1.8,0.6c-0.2,0-0.6,0.2-0.8,0.2C34.2,63.3,34,63.3,34,63.1L34,63.1z M42.4,69.7c0.6,0.4,0.6,0.8,0.8,1.2v0.6
			c0,0.2-0.4,0.2-0.6,0.2c-2,0.8-1.4,3-4,4.4h-0.2C40.4,74.3,40.2,71.3,42.4,69.7L42.4,69.7z M42.2,69.3c-1.6,1-1.6,2.4-3.2,2.2
			v-0.2c2-1.6,1.8-2.6,3-3C42,68.5,42.2,68.9,42.2,69.3L42.2,69.3z M42.2,66.5c-0.2,0.4-0.2,0.6-0.6,1.4c-1.4,0.4-1,1.8-2.8,2.2
			c-0.2,0-0.2,0-0.4,0C39,67.9,41,66.7,42.2,66.5L42.2,66.5z M39.8,66.5c0.6-0.6,1.6-1,2-1.2H42c0.2,0,0.2,0.2,0.4,0.4v0.2
			c0,0.2-0.2,0.2-0.2,0.2C41.8,66.5,41,66.3,39.8,66.5C39.8,66.7,39.6,66.7,39.8,66.5L39.8,66.5z M40,64.9c0.6-0.4,1-0.6,1.8-0.6
			v0.6c-0.6,0-1.2,0.2-1.8,0.4C39.6,65.1,40,64.9,40,64.9L40,64.9z M42.2,62.9c-0.2,0.2-0.4,0.4-0.6,0.6c-0.6,0-1-0.2-1.6-0.4
			C41.6,62.1,42.4,62.9,42.2,62.9L42.2,62.9z M44,62.9c-0.2,0.2-0.4-0.4-1.2,0c-0.2,0-0.4,0-0.6-0.4c-0.2-0.2-0.4-0.2-0.6-0.6
			C42.4,61.9,43.4,61.9,44,62.9L44,62.9z M45.8,63.3h-1c-0.4-0.6-0.8-1.4-1-2.2C45,61.5,45.8,62.7,45.8,63.3L45.8,63.3z M47.4,62.5
			c-0.2,0.6-0.4,0.8-0.6,1.4c0,0.2-0.2-0.2-0.6-0.4c-0.4-1-0.6-1.6-0.8-2.8C46.4,61.3,47,61.9,47.4,62.5L47.4,62.5z M49.8,61.5h0.4
			h0.4c0,0.2,0,0.2-0.2,0.4c-0.8,0.6-1.8,1.4-2.2,2.4h-0.8C47.6,63.1,48.2,61.7,49.8,61.5L49.8,61.5z M50.4,62.7
			c0.2,0,1.2-0.4,1.4-0.4c0.6,0,1.2,0.2,1.6,0.2c0.2,0,0.2,0,0.2,0c-0.4,0.6-0.8,0.4-1.8,0.6c-1.4,0.2-1.8,0.4-2.6,1.4
			c-0.4,0-0.4-0.2-0.6-0.2C49.4,63.3,49.8,62.9,50.4,62.7L50.4,62.7z M54,63.1c-0.2,0.4-0.4,1-1,1.2h-0.2c-0.8,0.2-1.4,0-2.2,0.6
			c-0.2,0-0.2-0.2-0.4,0s-0.6-0.2-0.6-0.4C51.4,62.9,52.2,63.3,54,63.1C53.8,62.9,53.8,63.1,54,63.1L54,63.1z M54,65.3L54,65.3
			c-0.8,0.6-1.4,0-2,0.4c-0.2,0.2-0.2-0.2-0.4-0.4c-0.2,0-0.6-0.2-0.6-0.2C52,64.7,53,64.5,54,65.3L54,65.3z M52,69.7
			c-0.4-0.8-0.8-1.4-1.6-2c1-0.2,1-0.4,1-0.4c0.6,0,1.2,0.4,1.6,1c0.6,1.8,0.2,2.8,0.8,5.4C53,73.7,52.6,70.9,52,69.7L52,69.7z
			 M50,68.7c-0.2,0,0.2-0.6,0.2-0.6c0.2-0.2,0.4,0,0.6,0.2c1.8,1.4,0.8,4.2,2.6,5.8c0.2,0.4-1,0-1.4-0.6
			C50.8,72.1,51.4,70.9,50,68.7L50,68.7z M49,70.1c0.2,0,0.2,0,0.4-0.2s0.4-0.6,0.4-0.6c0.6,0.6,1.2,2,1.2,3.4c0.4,1.4,1,2,0.8,2
			c-0.6-0.2-1-0.6-1.4-0.8C50,73.3,50,72.1,49,70.1L49,70.1z M47.8,70.9c-0.2,0,0.6-0.4,0.8-0.4c0.6,0.8,0.8,2,0.8,3
			c0.4,1,0,2.2-0.2,3c-1.2-1-0.6-2.6-1-4C48.2,71.9,48,71.5,47.8,70.9L47.8,70.9z M43.4,66.1c0-0.2-0.2-0.6,0.4-0.8
			c0.2,0,0.4-0.2,0.6-0.4c0.2,0,0.4,0.4,0.6,0.6c-0.2,0.4-0.6,0.8-0.6,1.4c0,0,0.2,0.2,0.4,0.2c0.4-0.2,0.6-0.4,0.8-0.8h0.2
			c0,0,0.2,0,0.2,0.2s-0.2,0.4-0.2,0.6c-0.2,0.4-0.6,0.6-0.8,0.6c-0.2,0.2-0.6,0.2-0.6,0.4c0.2,0.4,0.4,0.4,0.6,0.6s0.4,0,0.4,0
			c0,0.2-0.2,0.4-0.2,0.6c-0.2,0-0.6-0.2-0.6-0.2c-0.2-0.2-0.4-0.4-0.4-0.6s0-0.4-0.2-0.6h-0.6c-0.2,0.2-0.2,0.2-0.2,0.4
			c0,0.2,0,0.4,0.2,0.4c0.4,0,0.4,0.4,0.6,0.6c0.2,0.4,0.6,0.4,0.4,0.6c-0.2,0-0.2,0.2-0.4,0.4c-0.2,0-0.2-0.2-0.2-0.4
			c-0.4-0.6-0.6-1-1-1.6C42.8,67.5,43.2,66.7,43.4,66.1L43.4,66.1z M46.4,65.9c-0.6-0.2-2-1.6-2.2-1.6c0,0-0.2,0.6-0.8,0.6
			c0,0-0.2,0-0.4,0c-0.4-0.2-0.4-1,0-1.6c0,0,0.4-0.2,0.6-0.2s0.4,0.2,0.8,0.6c0.6,0,1.6,0.2,2,0.4c0.4,0,0.6,0.4,0.6,0.6
			C46.6,65.3,46.6,65.7,46.4,65.9L46.4,65.9z M49.4,66.1c-0.6-0.2-2,0.6-2.8,0c0.2-0.4,0.6-1.4,1.4-1.4c0.4-0.2,1.4,0.4,1.6,1
			c0,0,0.2,0,0.4-0.2c0.4,0,0.6,0,1,0.4c0.2,0.2,0.2,0.4,0,0.6s-0.8,0.8-1.2,0.2C49.6,66.7,49.8,66.3,49.4,66.1L49.4,66.1z
			 M46.4,68.1c0.2,0.4,0.4,0.4,0,0.6c0,0-0.2,0.2-0.2,0l-0.4-0.6c-0.4-0.4-0.6,0-1,0c0-0.2,0-0.2,0-0.4c0.8-0.2,1.2-0.8,1.6-1.4h0.2
			C46.6,66.7,45.8,67.5,46.4,68.1L46.4,68.1z M44.6,71.7c0.4-0.4,0.6-2.2,0.8-1.8c0.6,1.4-0.8,3-1.2,2.8c-0.4,0-0.6-2,0.4-3
			c0-0.2,0.2,0,0.2,0C44.6,70.5,44.6,71.1,44.6,71.7L44.6,71.7L44.6,71.7z M47.4,69.1c-0.2,0-0.2,0-0.4,0.2c0,0.6-1.4,0.2-1.6,0
			v-0.6c0.2-0.2,0.4,0.6,0.6,0.6c0.4,0.2,0.4,0,0.6-0.4c0.2,0,0-0.2,0-0.2c-0.4-0.4-0.6-1.4-0.2-2c0.2,0,0.4,0,0.4,0
			c0.4,0.4,0,1,0.4,1.2c0.2,0.2,0.4,0.4,0.6,0.4c0.6-0.2,0.2-0.6,0.4-1.2c0.2-0.2,0.4-0.4,1-0.4c0,0.2,0,0.4,0.2,0.4
			c0,0.2,0.6,0.4,0.2,0.6c-0.4,0.6-0.4,1.2-0.6,1.8c-0.4,0.6-1.8,1-2.8,1.6c-0.2-0.2,0-0.4-0.2-1c0.4,0,0.6,0,1-0.2
			c0.2,0,0.6,0.2,0.8-0.2C48,69.3,47.8,68.9,47.4,69.1L47.4,69.1z M37.6,78.3c2-1.4,2.4-2.6,3.8-4.2c0,0.6,0,1.8-0.6,2.8
			C40,77.9,38.4,78.1,37.6,78.3L37.6,78.3z M42.6,80c-0.4,0.4-0.6,0.4-0.8,1c0,0-0.6-1.4-0.2-2c0.2-0.2,0.6-0.4,0.6-0.8
			C42.4,78.8,42.4,79.6,42.6,80L42.6,80z M42.2,77.5c-0.2,0.8-2,2.8-4.2,2.4c5-3,2.8-5.4,4.2-7.2c0.4-0.2,0.4-0.6,1-0.6
			c0,0.6,0.6,1,0.4,1.4C43.2,74.3,42.4,76.3,42.2,77.5L42.2,77.5z M44,81.6c-1-1-1.2-3.4-1.2-4.6c0.2-0.8,0.6-2.6,1-3.4
			c0,0,0,0.2,0.2,0.2c0.4,0,0.4-0.2,1-0.6C45,76.3,43.2,75.9,44,81.6L44,81.6z M45.8,81c-1.2-0.2-1.6-1.8-1.2-3.8
			c0.2-1.4,1-2.4,0.8-4.4c0.2,0,0.6-0.6,0.6-0.8c1.2,2.4-1.2,5.6,0.8,7.6c-1.2,0.4-1.6-1.2-1.6-0.8C45,79.4,45.4,80.2,45.8,81
			L45.8,81z M48,78.3c-0.8-0.6-1-1-1.4-1.8c-0.2-1.4,0.4-3-0.2-4.4c0-0.2-0.4-0.6,0-0.6c0.4-0.2,0.6-0.4,0.8-0.6
			c0.6,0.6,0.6,2.8,0.6,3.4C47.8,76.1,47.4,76.7,48,78.3L48,78.3z M54.2,68.9C54.2,69.1,54.2,69.1,54.2,68.9c-0.4,0.2-0.6,0-0.8-0.6
			s-0.8-1.2-1.6-1.4c0.2-0.4,0-0.6,0-1c0.6-0.2,1-0.2,1.4,0.2c0.4,0.4,0.2,1.2,0.8,2.4C54.2,68.7,54.2,68.7,54.2,68.9L54.2,68.9z
			 M54.4,70.3L54.4,70.3c1,1.6,3,1.8,5,1.4c3.4-0.4,8-2.4,11-2.4c1,0,3.4,0.6,3.4,2c0,1-0.4,1.4-1,2.2c-1,0.6-3.6,0.8-4.6,0.8
			c-0.8,0-2.8,0-3.6-0.6c-0.2,0-0.6-0.4-0.8-0.6c-0.4-0.2-1-0.2-1.6-0.2c-2.4,0-5.2,1.4-7.2,1.4C54.6,74.3,54.2,71.3,54.4,70.3
			L54.4,70.3z M62.5,68.5c0,0.2-2.6,1-3.6,1c-1.8,0-2.2-0.8-2.2-1.6c-0.2-1,1.8-2.4,3-1.8C60.7,66.7,61.3,67.9,62.5,68.5L62.5,68.5z
			 M56,65.7c1-1,2.8-1.4,2.8-2.4c0.2-1.2-1.2-1.4-1.4-1.4c0.6-0.4,1.8,0.2,2,0.8c0.2,0.2,0.2-1.2-0.2-1.8c0,0,0.2,0,0.4,0.2
			c1.4,1,1.4,2.2,0.8,3.2c0,0.2,0.2,0.4,0.4,0.2c0.6-1.2,2.2-1.2,3.4-1.6h0.2l0.2,0.2c-0.4,0.2-0.4,0.4-0.6,0.6v0.2c0,0,0.2,0,0.4,0
			c2.2,0,3.4-1,3.6-0.8c0,0.2-0.4,1-3.6,1.8c-0.6,1,0.6,1.8,0.4,2c-0.8,0.2-1.4-0.4-1.4-1.2c0-0.2,0-0.2-0.2-0.2v-0.2
			c-0.8,1.2,0.8,2.8,2,3c0,0,0,0,0,0.2c0,0-0.2,0-0.4,0c-3.4-0.6-2.8-3.2-5.8-3.2h-0.4c-0.8,0.2-2,1.2-2.4,2.2
			c-0.2,1,0.4,2.2,1.4,2.4c2.4,0.6,4.2-0.4,6.4-1.4c1,0.4,2,0.2,2.6-0.4c0,0-0.6-0.2-0.8-0.4H66c1.2-0.2,1.6-0.6,1.4-1.8
			c0.8,0,1.8,1,1.8,1.4c0.6,0-0.4-1.4-0.6-1.8c1,0.4,1.8,0.4,2.4,1.6c0.6,0-0.4-2.2-0.2-2c1.8,0.8,1.6,2.4,1.8,2.2
			c0.6-0.6,0.2-1.4,0.4-1.8c1,0.4,1.8,1.2,1.4,2v0.2h0.2c0.4,0,0.8-1,0.8-1.2c0.6,0.6,0.8,1.4,0.6,2.2c0,0.2-0.2,0.2-0.2,0.2v0.2
			c0.2,0.2,0.4,0,0.4,0c0.8-0.4,0.6-1.4,1.2-1.8c0.4,1.8,0.2,2.8-1.4,3.2c-0.4,0-0.4,0.2-0.4,0.2c0.2,0.8,0,1.6-0.4,2.4
			c-0.6,1.4-1.6,1.8-2.8,2.4c-1.8,0.6-5.2,0.4-6.6-0.6c-0.2-0.2-0.4-0.4-0.6-0.4c2.2,0.6,8,1,9-2.2c0.8-2.2-1.2-3.6-3-3.8
			c-3.6-0.4-6.6,1.2-11,2.4c-2,0.6-5.6,0.4-5.6-2.4C54.6,67.5,55,66.5,56,65.7L56,65.7z M66.7,92.2c0-0.4,0.6-1.4,1-1.4
			c0,0.4,0.2,0.6,0.4,1C68.3,92,67.1,92,66.7,92.2L66.7,92.2z M49.6,90.8c-0.8,0-1,0.2-1.6,0.4c0-0.4,1-1,1.4-1l0,0
			C49.6,90.6,49.6,90.6,49.6,90.8L49.6,90.8L49.6,90.8z M49.4,88c0,0.2,0,0.2-0.2,0H49c-0.4-0.2-0.8-0.2-1,0c0.2-0.6,1-0.8,1.6-0.6
			C49.4,87.4,49.2,87.4,49.4,88L49.4,88z M29.8,90L29.8,90c-0.6,0-0.8,0-1.4,0.2c0.2-0.6,1.2-1,1.4-0.8V90L29.8,90z M30.8,67.3
			L30.8,67.3c-0.6,0.2-1-1-0.8-1.2c0.2,0,0.2,0.6,1,0.6C31,66.9,30.8,67.1,30.8,67.3L30.8,67.3z M80.5,86c-0.4,0-1,0.2-1.4-0.2
			c0.4-0.6,0.8-0.4,0.8-0.8c-0.2-0.2-0.6-0.2-0.6-0.4c-0.2-0.4,0.6-1,0.4-1.6c-0.2-0.2-0.4,0-0.6,0c-0.6,0.2,0.6-1,0.2-1.4
			c-1.2,0.4-2,1.2-3.4,1c-0.2-0.2-0.4-1-1.6-1.2c0,0-0.2,0-0.4,0.2c-0.8,0.6-2,1.2-2.8,0.6c-0.4-0.4-0.6-1-0.8-1.6
			c0-0.4-0.2-1.4-0.4-1.6c-0.6-1-2.4-1.4-3-3c3,0.6,9,0.6,9-4.8l0.2-0.2c0.4-0.2,2.2-1,1.8-3c0,0,0-0.2,0-0.4c0-0.4,0-0.8,0.2-1.2
			c0.2-0.2,0.2-0.2,0.2-0.2c-0.8-0.6-2.2,3.2-3.2-0.8c0,0-0.2-0.4-0.4-0.4c0,0.4-0.4,1-0.6,0.8c-0.8-0.4-1.6-2.4-2.2-2.2
			c0.2,0.8,0.4,1.4,0,1.4h-0.2c-0.6-0.2-1.2-0.8-1.8-1c-0.2,0.4,0.2,0.6-0.2,1c-1.2,0.2-1.8-0.4-2.6-0.4c0,0.2,0.2,0.2,0.2,0.6v0.2
			c-0.4,0.2-0.8,0-1,0l0,0c0,0.2,0.8,0.6,0.4,1.4c0,0.2-0.2,0.4-0.2,0.4c-0.4,0.4-1.6,0.8-2.2-0.2c-0.2-0.4,1-0.4,1.2-0.6
			c-0.2-0.4-0.6-0.6-0.4-1.4s3.6-1.4,3.4-3.4c-0.6-0.2-3,1.4-2.8-0.6c-0.2,0-0.2,0-0.2,0c-0.8,0.6-2,1.2-3.2,1
			c-1-0.4-1.8-2.2-3.8-2.4v1.2c-1.2,0-2.2,0-2.4,0.6c1,0,1.8,0,2,1c0.4,1-2,1.4-3.4,3c-0.4-0.4-1-1.2-1.2-1.2c0.4-0.4,0.6-1,0.6-1.4
			s-0.2-0.8-0.2-1.2c-0.2-0.2-0.2-0.4-0.4-0.6c-0.8,0.6-2.8,0.4-1.8-0.6c-0.2,0-0.4-0.2-0.8,0c-1,0-2.2,0-3,0.6
			c-0.6-0.8-1.8-1.4-2.8-1.6c-0.2-0.2-0.4-0.4-0.4-0.4c-0.2,0.8-0.6,1-1.6,0.8c0,0.4,0.2,0.6,0.2,0.8c0,0-0.8-0.4-1.8,0
			c-0.6,0-1-0.2-1.2-0.2c0,0.2,0.6,0.4,0.6,0.6c-0.2,0.8-1.2,1-1.6,1.4c0.4,0.4,0.6,0.4,0.6,0.6c0.2,0.2-1,1.2-1.2,1.4
			c0.4,0.2,1.2,0.4,1,0.6c-0.4,0.6-1.2,1.2-1.2,2c0.2,0,0.4-0.2,0.6,0c-0.4,0.6-0.8,1.4-1.2,2.2c0,0.2,0,0.2,0.2,0.4h0.2
			c0,0.4-0.2,0.8-0.4,1.2c-0.4,0.4-1.8-2-1.8-3.6c0-3.4,0.6-2.8,0.6-3.4c0-0.8-0.8-0.6-1.2-1.2c-0.6-1.2-2.6-1.4-3.4-0.6
			c0.6,0.2,0.8,0.2,1.2,0.8c0.2,0.4-0.2,0.4-0.2,0.6c-0.4,0-0.4,0.2-0.6,0c-0.6-0.6-2.2-1.2-3.2,0c0.8,0.2,1.6,0.6,1.8,1.6v0.2
			c-0.4,0.8-1.6-0.6-1.6-0.6c-0.4,0.6-0.4,2.2,0.6,2.6h0.2c0.4,0,0.2,0.4,0.4,0.6l0.4,0.2c0.2,0,0.6,0,0.8,0c0.2,0,0.2,0,0.4,0
			c0.2,0.2,0.2,0.2,0,0.4l-0.2,0.8c-0.4,0-0.6,0-1,0c0,0,0,0.6,0.2,1c0.4,0.4,0.8,0.6,1.4,0.6c0.4,0,0.4,0.6,0.2,0.6
			c-1,0.6-1.8,0.8-2.4,2c0.6-0.2,1-0.2,1,0.2c0,0.6-0.4,0.6-0.6,1c0,0-0.2,0-0.2,0.2c0.4,0.2,0.8-0.2,1,0.2c0.4,0.4-1.2,1.2-1,1.8
			c0.6-0.2,1.6-0.4,1.8,0.6c0,0.4-0.4,1-0.8,1.4c0.6,0,1.4-0.4,1.6,0c0.2,0.2-1,0.8-1,1.4c0.6-0.2,0.8-0.4,1.4-0.2
			c0.4,0.6-1.2,1.2-1.4,1.2c0.6,0.8,2.8,0.6,3.8,0.2c0.4,1.4,2.2,1.4,2.2,1.6c-0.6,0.4-1,1.4-0.8,2c0.2,1.4-0.6,2.8-2.4,2.8
			c-1,0-2-0.2-2.4-1.2s-1-1-1.8-0.6c-1-0.4-2.4,0.4-2.8,1.4c0.6-0.2,2.8,0.6,1.6,1.6c-0.8,0-1.8,0.6-1.8,2c3.8-1,3.2,1.4,0.6,2
			c1.6,1.4,2.2,0.8,3.6,0.4c0.2-0.2,0.4,0,0.6,0c1,0.4,1-0.8,1.4-1.2c0.2-0.2,0.4,0,0.4,0l0.2,0.2c0.2,0.8-0.4,1,0,1.2
			c1.2,0.2,2-1.2,2-2.4l0.2-0.4c0.2-0.2,0.4-0.6,0.8-0.6c0.6-0.2,1.4,1.2,4.2,0.4c0-0.2-0.4-0.6-0.2-0.6c0.6-0.2,1-0.4,1.6-0.6
			c0.6-0.4,1.4-0.4,2-0.8c-0.2,0-0.6-0.2-0.6-0.4c0.2-0.2,1.2-0.2,1-0.6c0,0-0.2,0-0.4-0.2c-0.8-0.2,1.8-1.4,1.8-1.6
			c-0.2,0-1-1-0.6-1.2s1.2-0.4,1.6-0.8c0.4-0.2,4-1.2,5.4-1.6c0,1.2,0.2,1.8,0.6,2.2c0.4,0.4,0.8,0.4,1.4,0.6c1,0.2,2-0.2,3.2,0
			c1,0,1,1.4-0.2,1.8C58,87,57.2,87,56.6,87c-1.2-0.2-1.4-0.4-1.8-1c-0.2-0.2-0.2-0.2-0.6-0.4c-0.6-0.4-1-0.4-1.4-0.6s-0.6-1-1.2-1
			c-0.4,0-0.6,0.2-0.8,0.4c-1-0.6-2.8,0.6-2.6,1.6c0.4-0.2,1.2-0.4,1.6,0.4v0.2c0,0.2-0.2,0.4-0.2,0.2c-1.6-0.8-2.8,1.4-2.2,1.8
			c0.4-0.4,1.2-0.6,1.8,0c0.4,0.2,0.4,0.4,0.4,0.8c-1,0.4-1.6,0.6-1.8,2.4C47.8,92,48,92,48,92c0.8-0.6,1.8-0.6,2.6-0.6
			c0.6,0.6,1.2,0.6,1.8,0.4c0.8-0.6,1.4-1.6,1.6-1.6s0.2-0.2,0.4,0s0,0.6,0,0.6c-0.2,0.4-0.4,0.6-0.8,0.8c0,0.2,0.4,0.4,0.8,0.4
			c0.6,0,1,0,1.6-0.4h0.2c0,0,0,0,0,0.2s-0.4,0.6-0.2,0.6c0.8,0.2,1.6,0,1.8-0.6c0.4,0.4,0.6,0.8,1,1c0-0.6,0.2-1.2,0.6-1.4
			c0,0.4,0.4,1.6,0.8,1.4c0-0.2,0.2-0.6,0.4-0.8l0.2-0.2c0.2,0,0.6,1.2,1,1c0.2-0.4,0.6-1.4,0.8-1.4c0.6,0.2,1.8,0.4,2.4,0.4
			c-0.6-0.8-0.8-1.2-0.8-2c0-0.6,0.8-0.8,1.2-1.4c0.4-0.4,0.4-0.6,0.4-1.2c-0.2-0.6-1-1-1.6-1.4C63.6,85.2,64,84,64,84l0.2-0.2
			c0.8,0.6,1.6,1.2,2.2,1.6c0.8,0.6,2,0.8,3,0.6c1.2-0.2,3.6,0,3.6,1.4c0,0.6-0.8,1.6-1.6,1.4c-0.6-0.4-0.6-1.4-1.2-1.4
			c-0.4-0.2-0.8,0.2-1.2,0.4c-1.2-0.4-2.4-0.4-3.2,1.4c0,0.4,0.4,0.2,0.6,0.2c0.6-0.2,1.6,0,2,0.6c0,0.2-0.2,0-0.6,0.8
			C67,91,66,92.2,66,93.4c0,0.2,0,0.2,0.2,0.2c0.8-0.4,1.8-0.8,2.8-0.8c0.2,0.2,0.2,0.6,0.2,0.6c-0.6,0.4-1.4,0.6-2,0.6
			c-0.2,0-0.2,0.2,0,0.4c1,1,3,1,3.8,0.4c1.6,0.2,2.2-1,1.8-2c0-0.2,0-0.4,0.2-0.4c0.8-0.2,1.2,1,1,1.8c0.8,0.2,1.8-1,1.8-1.6
			c1,0,1.8-0.2,3-1.2c-0.2,0-0.6-0.2-0.8-0.4c-0.2-0.2-0.2-0.2-0.2-0.2c0.2-0.2,1.2-0.6,1.4-0.8c0-0.2-0.4-0.4-0.4-0.6
			c0.2-0.4,1-0.6,1-1c0,0-0.6,0-0.6-0.2C79.1,87.6,80.3,86.8,80.5,86L80.5,86z"/>
		<path fill="#00AEEF" d="M55.6,90.4C55.4,90.2,55,90,55,90.2c-0.2,0.4-0.4,0.8-0.8,1.4C54.6,91.6,56.2,90.6,55.6,90.4L55.6,90.4z"
			/>
		<path fill="#00AEEF" d="M34,63.1c0,0.2,0.2,0.2,0.2,0.2c0.2,0,0.6-0.2,0.8-0.2c-0.4-0.6-1-0.8-1.8-0.6
			C33.6,62.7,33.8,62.9,34,63.1L34,63.1z"/>
		<path fill="#00AEEF" d="M68.7,87.8c-0.6-0.6-1.8,0.4-2,0.6c0.6-0.2,1-0.2,1.8,0.2C68.3,88.8,68.5,88,68.7,87.8L68.7,87.8z"/>
		<path fill="#00AEEF" d="M31.6,64.9c0,0,0.2-0.2,0.4-0.4c0.2-0.2,0.2-0.2,0.2-0.2c-0.2-0.2-1-0.4-1.6-0.4
			C30.4,64.1,31.2,63.9,31.6,64.9L31.6,64.9z"/>
		<path fill="#00AEEF" d="M44.6,69.7c-1,1-0.6,3-0.4,3c0.4,0.2,1.8-1.4,1.2-2.8c-0.2-0.4-0.6,1.4-0.8,1.8h-0.2
			C44.6,71.1,44.6,70.5,44.6,69.7C44.8,69.7,44.6,69.7,44.6,69.7L44.6,69.7z"/>
		<path fill="#00AEEF" d="M49.6,90.2c-0.6,0-1.4,0.6-1.4,1c0.4-0.2,0.6-0.4,1.6-0.4H50C49.6,90.6,49.6,90.6,49.6,90.2L49.6,90.2
			L49.6,90.2z"/>
		<path fill="#00AEEF" d="M30.4,86.2c-0.6,0-1.2,0-1.4,0.6c0.6-0.2,1,0,1.2,0l0.2-0.2C30.4,86.6,30.4,86.4,30.4,86.2L30.4,86.2
			L30.4,86.2z"/>
		<path fill="#00AEEF" d="M30.8,92L30.8,92c-0.4,0.6-0.8,0.8-1.2,1c0.4,0.2,1.4,0.2,1.6-0.2v-0.2C31.2,92.6,31,92,30.8,92L30.8,92z"
			/>
		<path fill="#00AEEF" d="M50,85.6c0.2-0.2,0.2-0.4,0.2-0.6c-0.4-0.4-1.2-0.2-1.6,0.4C49.2,85.2,49.4,85.4,50,85.6L50,85.6L50,85.6z
			"/>
		<path fill="#00AEEF" d="M28.4,90.2c0.6-0.4,0.8-0.4,1.2-0.2h0.2v-0.6C29.6,89.2,28.6,89.6,28.4,90.2L28.4,90.2z"/>
		<path fill="#00AEEF" d="M49.4,87.4c-0.6-0.2-1.4,0.2-1.6,0.6c0.4-0.2,0.6-0.2,1,0H49c0.2,0,0.2,0,0.2,0
			C49.2,87.4,49.4,87.4,49.4,87.4L49.4,87.4z"/>
		<path fill="#00AEEF" d="M30,66.1c-0.2,0.2,0.4,1.4,0.8,1.4l0,0c0-0.2,0.2-0.4,0.2-0.6C30.2,66.7,30.2,66.1,30,66.1L30,66.1z"/>
		<path fill="#00AEEF" d="M67.9,93.8c0.2,0.6,1.6,0.6,1.8,0.2c-0.2-0.2-0.4-0.4-0.6-0.4C68.9,93.8,68.3,93.8,67.9,93.8L67.9,93.8z"
			/>
		<path fill="#00AEEF" d="M67.7,90.8c-0.6,0-1,1-1,1.4c0.4-0.2,1.6-0.2,1.4-0.4S67.7,91.2,67.7,90.8L67.7,90.8z"/>
		<path fill="#00AEEF" d="M74.7,91.8c-0.4-0.2-1.2-0.4-1.2-0.2c0.6,0.6,0.6,0.6,0.6,1.4C74.9,92.8,74.7,92.2,74.7,91.8L74.7,91.8
			L74.7,91.8z"/>
		<polygon fill="#AFA02C" points="52.6,48.5 51.4,45.5 48.4,46.9 49.8,43.9 46.8,42.7 49.8,41.8 48.4,38.8 51.4,40 52.6,37 53.8,40 
			57,38.8 55.6,41.8 58.6,42.7 55.6,43.9 57,46.9 53.8,45.5 		"/>
		<polygon fill="#AFA02C" points="52.6,116.7 51.4,113.8 48.4,115 49.8,112.2 46.6,111 49.8,109.8 48.4,106.8 51.4,108.2 
			52.6,105.2 53.8,108.2 56.8,106.8 55.6,109.8 58.6,111 55.6,112.2 56.8,115 53.8,113.8 		"/>
		<polygon fill="#AFA02C" points="90.5,83.6 89.3,80.8 86.3,82 87.5,79 84.5,78.1 87.5,76.9 86.3,73.9 89.3,75.3 90.5,72.3 
			91.7,75.3 94.7,73.9 93.5,76.9 96.5,78.1 93.5,79 94.7,82 91.7,80.8 		"/>
		<polygon fill="#AFA02C" points="15.1,83.6 13.9,80.8 10.9,82 12.1,79 9.1,78.1 12.1,76.9 10.9,73.9 13.9,75.3 15.1,72.3 
			16.3,75.3 19.3,73.9 18.1,76.9 21.1,78.1 18.1,79 19.3,82 16.3,80.8 		"/>
		<path fill="#E2F4FD" d="M67.9,9.4c-4,0.2-5.8-2.4-9.2-2.4c-1.6,0-3.6,0.4-6,2.4c-2.6-2-4.6-2.4-6-2.4c-3.4,0-5.4,2.6-9.2,2.4
			c-0.6,0-1-0.2-1.4-0.2v13.4c0.4,0.2,1,0.2,1.4,0.2c4,0.2,5.8-2.4,9.2-2.4c1.4,0,3.4,0.4,6,2.4l0,0l0,0l0,0l0,0
			c2.6-2,4.6-2.4,6-2.4c3.4,0,5.4,2.6,9.2,2.4c0.6,0,1-0.2,1.4-0.2V9.2C68.9,9.2,68.5,9.4,67.9,9.4L67.9,9.4z"/>
		<polygon fill="#AFA02C" points="33.2,24 54.2,24 54.2,25.4 33.2,25.4 		"/>
		<polygon fill="#AFA02C" points="34.6,9 34.6,25.4 33.2,25.4 33.2,9 		"/>
		<polygon fill="#AFA02C" points="72.3,24 51.2,24 51.2,25.4 72.3,25.4 		"/>
		<polygon fill="#AFA02C" points="70.7,9 70.7,25.4 72.3,25.4 72.3,9 		"/>
		<polygon fill="#AFA02C" points="30.4,20.2 33.2,18.8 33.2,21.8 		"/>
		<polygon fill="#AFA02C" points="30.4,14.2 33.2,12.8 33.2,15.8 		"/>
		<polygon fill="#AFA02C" points="74.9,20.2 72.1,18.8 72.1,21.8 		"/>
		<polygon fill="#AFA02C" points="74.9,14.2 72.1,12.8 72.1,15.8 		"/>
		<path fill="#D94827" d="M69.3,7.8h-0.4c-0.4,0-0.8,0.2-1.2,0.2c-1.8,0-3-0.4-4.4-1.2c-1.4-0.6-2.8-1.2-4.8-1.4h-0.2
			c-2,0-4,0.6-5.8,2c-2-1.4-4-2-5.8-2h-0.1c-1.8,0-3.4,0.6-4.8,1.4C40.4,7.4,39.2,8,37.4,8c-0.4,0-0.8,0-1.2-0.2h-0.4v0.6H36
			c0.4,0.2,1,0.2,1.4,0.2c2,0.2,3.4-0.6,4.8-1.2c1.4-0.6,2.6-1.2,4.4-1.2h0.2c1.8,0,3.8,0.6,5.6,2l0.2,0.2l0.2-0.2
			c1.8-1.4,3.8-2,5.6-2h0.2c1.8,0,3.2,0.6,4.4,1.2c1.4,0.6,2.6,1.2,4.4,1.2h0.4c0.4,0,1,0,1.4-0.2h0.2V7.8H69.3z"/>
		<path d="M41.6,15.4c0,0.8-0.6,1.2-1.4,1.2c-0.6,0-1-0.2-1.4-0.6v-0.2l0.4-0.4l0,0c0.2,0.2,0.6,0.4,0.8,0.4c0.4,0,0.6-0.2,0.6-0.4
			c0-0.6-1.8-0.4-1.8-1.8c0-0.6,0.6-1,1.2-1c0.4,0,1,0.2,1.2,0.6v0.2l-0.4,0.4h-0.2c-0.2-0.2-0.4-0.4-0.8-0.4s-0.6,0.2-0.6,0.4
			C39.6,14.4,41.6,14,41.6,15.4L41.6,15.4z"/>
		<path d="M46,15.8L46,15.8c-0.4,0.4-0.8,0.6-1.4,0.6c-1.2,0-2-0.8-2-2s1-2,2-2c0.6,0,1,0.2,1.4,0.6v0.2l-0.4,0.4h-0.2
			c-0.2-0.2-0.4-0.2-0.8-0.2c-0.6,0-1.2,0.6-1.2,1.2c0,0.8,0.6,1.2,1.2,1.2c0.4,0,0.6-0.2,1-0.4h0.2L46,15.8L46,15.8z"/>
		<polygon points="47.4,12.6 48,12.6 48,12.8 48,16.4 48,16.4 47.4,16.4 47.2,16.4 47.2,12.8 		"/>
		<polygon points="51.8,16 51.8,16.4 51.6,16.4 49.6,16.4 49.4,16.4 49.4,12.8 49.6,12.6 51.6,12.6 51.8,12.8 51.8,13.2 51.6,13.2 
			50.2,13.2 50.2,14.2 51.6,14.2 51.6,14.2 51.6,14.8 51.6,14.8 50.2,14.8 50.2,15.8 51.6,15.8 		"/>
		<polygon points="56.2,12.8 56.2,16.4 56.2,16.4 55.4,16.4 55.4,16.4 53.8,13.8 53.8,16.4 53.8,16.4 53.2,16.4 53,16.4 53,12.8 
			53.2,12.6 53.8,12.6 54,12.6 55.6,15.4 55.6,12.8 55.6,12.6 56.2,12.6 		"/>
		<polygon points="60,12.8 60,13.2 60,13.2 59.2,13.2 59.2,16.4 59,16.4 58.4,16.4 58.4,16.4 58.4,13.2 57.4,13.2 57.4,13.2 
			57.4,12.8 57.4,12.6 60,12.6 		"/>
		<polygon points="61.1,12.6 61.7,12.6 61.9,12.8 61.9,16.4 61.7,16.4 61.1,16.4 61.1,16.4 61.1,12.8 		"/>
		<path d="M65.3,15.2l-0.6-1.6l-0.6,1.6H65.3L65.3,15.2z M66.5,16.4h-0.6l0,0l-0.2-0.6h-1.4l-0.2,0.6l0,0h-1l0,0l1.4-3.8l0,0h0.6
			h0.2L66.5,16.4L66.5,16.4L66.5,16.4z"/>
	</g>
	<g id="Layer_2_00000080172147516313926010000011032056913223401873_">
		<path fill="#FFFFFF" d="M101.3,114.9c-1,0-1.8,0.3-2.2,0.5l-35,16.2c-2.3,1-3.1,2.2-3.1,5v5.8c-2.2,0.3-5.4,0.6-8.1,0.6
			c-2.4,0-5.6-0.3-8.1-0.6V136c0-0.7,0-3-2.4-4.1c-17.8-8.2-24.4-11.2-27.5-12.6c-3.2-1.5-3.2-1.5-8.2-3.8c-2.4-1.1-4.7-0.5-5.8,1.4
			c-0.6,1-0.8,2.3-0.8,3.9v15.6c0,2.1,1.1,4,3,5c0.8,0.4,10.5,4.7,14.6,6.5c7,3.1,10.6,4.6,12.4,5.4c0,1.1,0,2.7,0.1,4.2
			c0,1.3,0.7,3,4.2,3.8c2.8,0.7,12.3,2.8,18.5,2.8c9.3,0,20.2-3.3,20.4-3.3c1.7-0.4,2.5-1.7,2.5-3.9c0-1.3,0-2.6,0-3.6
			c1.8-0.7,5.2-2.3,12.3-5.4c4.1-1.8,13.8-6.1,14.6-6.5c1.8-1,3-2.9,3-5v-16.2C105.7,116.3,103.3,114.9,101.3,114.9z"/>
		<path d="M103.3,120.3c0-3.4-2.3-3.1-3.2-2.7L65,133.8c-1.3,0.5-1.6,0.8-1.6,2.7v7.8c-2.4,0.5-7,1-10.5,1c-3.3,0-7.9-0.5-10.6-1
			c0-0.1,0.1-0.2,0.1,0.2c0,0,0-6.4,0-8.6c0-0.8-0.1-1.5-1-1.9c-35.7-16.5-25.7-11.7-35.7-16.5c-1.8-0.9-3.2-0.3-3.2,3.2
			c0,0.3,0,15.6,0,15.6c0,1.2,0.7,2.3,1.7,2.8c1.2,0.6,28.1,12.4,28.2,12.4l0.1,5.8c0,0.4,0.4,1,2.2,1.5c0.7,0.2,11.5,2.7,18.1,2.7
			c9,0,19.5-3.2,19.6-3.2c0.4-0.1,0.9,0,0.9-1.6c0,0-0.1-5.2,0-5.2s27.1-11.9,28.2-12.4c1.1-0.5,1.7-1.6,1.7-2.8c0,0,0-10.4,0-13.9
			L103.3,120.3L103.3,120.3z"/>
	</g>
	<g id="Layer_4_00000163060421094976128630000007337348864425946557_">
		<g>
			<path fill="#AFA02C" d="M64.5,135.5c1.2,1.1,2.4,2.1,3.5,3.2c0.6,0.6,1.3,1.1,1.9,1.7l2.1,1.9c-2.1,0.8-4.6,1.4-7.5,1.9V135.5z"
				/>
			<path fill="#AFA02C" d="M41.5,135.5v8.6c-3.5-0.6-5.8-1.3-7.5-1.9l2-1.8c0.6-0.6,1.3-1.1,1.9-1.7
				C39.1,137.6,40.3,136.6,41.5,135.5z"/>
			<path fill="#E2F4FD" d="M32.9,141.6c-0.2,0.2-0.4,0.5-0.4,0.9v8.2c-0.6-0.3-1.3-0.6-2-0.9c-1-0.4-1.9-0.8-2.7-1.2l-17.7-7.9
				c-0.6-0.3-1.3-0.6-1.9-0.8c-1.2-0.5-2.4-1-3.5-1.6c-0.7-0.4-1.2-1.1-1.2-2c0,0,0-16.1,0-16.2c0-0.7,0-1.5,0.4-1.8
				c0.2-0.1,0.3-0.2,0.6-0.2c0.2,0,0.5,0.1,0.8,0.2l0.8,0.4c1.7,0.8,34.3,15.9,34.3,15.9s0.1,0,0.1,0.1c-1.1,1-2.3,2-3.4,3l-1.9,1.7
				L32.9,141.6z"/>
			<path fill="#E2F4FD" d="M72.3,157.5L72.3,157.5c-0.7,0.3-10.8,3.2-19.3,3.2c-6.4,0-17.1-2.5-17.8-2.7c-0.5-0.2-1-0.3-1.5-0.5l0,0
				v-5v-9.2c2.2,0.7,4.3,1.4,7.7,2c2.6,0.5,7.9,1.1,11.6,1.1c4.3,0,8.3-0.5,12.3-1.3c2.8-0.6,6.4-1.6,7-1.9
				C72.3,143.2,72.3,157.5,72.3,157.5z"/>
			<path fill="#E2F4FD" d="M102.3,120.3c0,0.1,0,0.2,0,0.3c0,2.1,0,15.9,0,15.9c0,0.8-0.5,1.6-1.2,2c-1.1,0.6-27.2,12.1-27.8,12.3
				v-8.2c0-0.3-0.1-0.6-0.4-0.9l-2.4-2.1c-0.6-0.6-1.3-1.1-1.9-1.7c-1.1-1-2.3-2-3.4-3c0,0,0.1,0,0.1-0.1l35.1-16.2
				c0.7-0.4,1.1-0.2,1.4,0C102.4,118.8,102.3,119.6,102.3,120.3z"/>
		</g>
		<path fill="#AFA02C" d="M64.5,135.5c1.2,1.1,2.4,2.1,3.5,3.2c0.6,0.6,1.3,1.1,1.9,1.7l2.1,1.9c-2.1,0.8-4.6,1.4-7.5,1.9V135.5z"/>
		<path fill="#AFA02C" d="M41.5,135.5v8.6c-3.5-0.6-5.8-1.3-7.5-1.9l2-1.8c0.6-0.6,1.3-1.1,1.9-1.7
			C39.1,137.6,40.3,136.6,41.5,135.5z"/>
		<path fill="#E2F4FD" d="M32.9,141.6c-0.2,0.2-0.4,0.5-0.4,0.9v8.2c-0.6-0.3-1.3-0.6-2-0.9c-1-0.4-1.9-0.8-2.7-1.2l-17.7-7.9
			c-0.6-0.3-1.3-0.6-1.9-0.8c-1.2-0.5-2.4-1-3.5-1.6c-0.7-0.4-1.2-1.1-1.2-2c0,0,0-16.1,0-16.2c0-0.7,0-1.5,0.4-1.8
			c0.2-0.1,0.3-0.2,0.6-0.2c0.2,0,0.5,0.1,0.8,0.2l0.8,0.4c1.7,0.8,34.3,15.9,34.3,15.9s0.1,0,0.1,0.1c-1.1,1-2.3,2-3.4,3l-1.9,1.7
			L32.9,141.6z"/>
		<path fill="#E2F4FD" d="M72.3,157.5L72.3,157.5c-0.7,0.3-10.8,3.2-19.3,3.2c-6.4,0-17.1-2.5-17.8-2.7c-0.5-0.2-1-0.3-1.5-0.5l0,0
			v-5v-9.2c2.2,0.7,4.3,1.4,7.7,2c2.6,0.5,7.9,1.1,11.6,1.1c4.3,0,8.3-0.5,12.3-1.3c2.8-0.6,6.4-1.6,7-1.9
			C72.3,143.2,72.3,157.5,72.3,157.5z"/>
		<path fill="#E2F4FD" d="M102.3,120.3c0,0.1,0,0.2,0,0.3c0,2.1,0,15.9,0,15.9c0,0.8-0.5,1.6-1.2,2c-1.1,0.6-27.2,12.1-27.8,12.3
			v-8.2c0-0.3-0.1-0.6-0.4-0.9l-2.4-2.1c-0.6-0.6-1.3-1.1-1.9-1.7c-1.1-1-2.3-2-3.4-3c0,0,0.1,0,0.1-0.1l35.1-16.2
			c0.7-0.4,1.1-0.2,1.4,0C102.4,118.8,102.3,119.6,102.3,120.3z"/>
	</g>
	<g id="Layer_3_00000075858758403938330230000015544914385782471308_">
		<g>
			<path fill="#231F20" d="M9.4,132.1c0.2-0.1,0.3-0.2,0.4-0.1c0.2,0.1,0.2,0.3,0.1,0.5l0,0c-0.2,0.4-0.4,0.6-0.7,0.6
				c-0.3,0.1-0.9-0.1-1.5-0.3c-1.6-0.8-1.9-2.4-1.3-3.7s2.1-2.1,3.8-1.3c0.5,0.2,0.9,0.5,1,0.8c0.2,0.3,0.1,0.5,0,0.8v0.1
				c-0.2,0.3-0.3,0.4-0.5,0.3c-0.2-0.1-0.2-0.2-0.2-0.3c0-0.2,0-0.5-0.2-0.8c-0.1-0.2-0.3-0.4-0.5-0.5c-0.8-0.4-1.8,0.1-2.4,1.3
				c0,0.1-0.1,0.1-0.1,0.2c-0.5,1.3-0.1,2.2,0.6,2.6c0.3,0.1,0.6,0.2,0.9,0C9.1,132.4,9.2,132.2,9.4,132.1z"/>
			<path fill="#231F20" d="M12.3,135.1c-1.5-0.7-2-2.2-1.3-3.6c0.7-1.4,2.2-2.1,3.7-1.4c1.5,0.7,1.9,2.2,1.3,3.7
				C15.3,135.2,13.7,135.8,12.3,135.1z M12.1,131.7c-0.6,1.2-0.5,2.5,0.5,2.9c0.9,0.4,1.8-0.1,2.3-1.2c0.6-1.2,0.5-2.5-0.5-2.9
				C13.6,130.2,12.6,130.6,12.1,131.7z"/>
			<path fill="#231F20" d="M19.9,138.5c-0.1,0.1-0.2,0.1-0.3,0l-0.6-0.3c-0.2-0.1-0.3-0.2-0.4-0.5c0-0.2,0-0.7,0-1.3
				s-0.1-1.1-0.4-1.3c-0.1-0.1-0.2-0.1-0.3-0.2c-0.1,0-0.1-0.1-0.2-0.1s-0.1,0-0.1,0.1l-0.4,0.9c-0.2,0.5-0.3,0.6-0.3,0.8
				c0,0.1,0,0.2,0.1,0.3s0.1,0.2,0.1,0.2c0,0.1-0.2,0.1-0.3,0l-1.4-0.7c-0.1-0.1-0.2-0.2-0.2-0.3s0.1-0.1,0.2-0.1
				c0.1,0,0.2,0,0.3-0.1s0.2-0.2,0.4-0.7l1.2-2.6c0.2-0.4,0.2-0.5,0.1-0.7c-0.1-0.1-0.2-0.2-0.1-0.3c0-0.1,0.1-0.1,0.3,0
				c0,0,0.9,0.4,1.1,0.5s0.5,0.2,0.7,0.3c0.5,0.2,1,0.5,1.2,1c0.2,0.4,0.1,0.7,0,1c-0.1,0.2-0.2,0.3-0.3,0.4
				c-0.4,0.3-0.9,0.3-1.3,0.2h-0.1c0,0,0,0,0,0.1c0.5,0.3,0.5,0.8,0.5,1.7s0,1.1,0.1,1.2C19.8,138.3,19.9,138.4,19.9,138.5z
				 M19.9,134.3c0.3-0.7-0.1-1.1-0.6-1.3c0,0-0.3-0.1-0.4-0.2c-0.1,0-0.1,0-0.2,0l-0.7,1.5c0,0.1,0,0.1,0.1,0.1l0.4,0.2
				C18.9,134.9,19.5,134.9,19.9,134.3z"/>
			<path fill="#231F20" d="M26,138.6c-0.6,1.2-2,2.1-4,1.1c-0.5-0.2-1.6-0.8-1.6-0.8c-0.1-0.1-0.2-0.2-0.2-0.3s0.1-0.1,0.2-0.1
				s0.3-0.1,0.3-0.1c0.1-0.1,0.2-0.2,0.4-0.7l1.3-2.6c0.2-0.3,0.2-0.5,0.1-0.7c-0.1-0.1-0.2-0.2-0.1-0.3c0-0.1,0.1-0.1,0.3,0
				c0,0,0.7,0.3,1.1,0.5c1.2,0.6,1.7,1,2.1,1.5C26.4,136.9,26.4,137.8,26,138.6z M25,138.2c0.3-0.6,0.5-1.4,0-2.2
				c-0.2-0.3-0.6-0.6-1.2-0.8c-0.1-0.1-0.2,0-0.2,0.1l-1.4,2.9v0.1c-0.2,0.4-0.3,0.6-0.2,0.7c0,0.1,0.2,0.2,0.3,0.3
				c0.6,0.3,1.1,0.4,1.7,0.1C24.4,139.2,24.8,138.7,25,138.2z"/>
			<path fill="#231F20" d="M29.8,142c0,0.1-0.1,0.1-0.1,0.2c-0.3,0.4-0.5,0.8-0.8,0.8c-0.1,0-0.2,0-0.2-0.1
				c-0.2-0.1-0.5-0.3-1.2-0.6l-1.9-0.9c-0.1-0.1-0.2-0.2-0.2-0.3s0.1-0.1,0.2-0.1c0.2,0,0.2,0,0.3-0.1c0.1-0.1,0.2-0.2,0.4-0.7
				l1.3-2.6c0.1-0.3,0.2-0.5,0.1-0.7c-0.1-0.1-0.2-0.2-0.1-0.3c0-0.1,0.1-0.1,0.3,0l1.8,0.9c0.8,0.4,1.2,0.5,1.4,0.6
				c0.2,0.1,0.2,0.2,0.1,0.3c0,0.1-0.2,0.3-0.2,0.5c-0.1,0.1-0.2,0.4-0.2,0.5c-0.1,0.2-0.2,0.2-0.3,0.1c-0.2-0.1-0.2-0.1-0.2-0.4
				c0-0.1,0.1-0.4-0.1-0.7c-0.2-0.2-0.5-0.4-0.9-0.6l-0.3-0.1c-0.1-0.1-0.2,0-0.2,0.1l-0.6,1.3c-0.1,0.2,0,0.2,0.2,0.3l0,0
				c0.2,0.1,0.3,0.2,0.5,0.2c0.3,0.1,0.5,0.2,0.7,0.3c0.1,0.1,0.2,0.1,0.2,0.3c0,0,0,0.1-0.1,0.1c-0.1,0.1-0.1,0.2-0.2,0.2
				s-0.2,0-0.3-0.1c-0.3-0.1-0.5-0.3-0.9-0.5c-0.1-0.1-0.3-0.1-0.4-0.2c-0.1,0-0.1,0-0.1,0l-0.5,1.1c-0.2,0.3-0.2,0.5-0.2,0.7
				c0,0.1,0.2,0.2,0.4,0.2c0.2,0.1,0.4,0.2,0.6,0.2c0.5,0.1,0.8,0,1.2-0.3c0.2-0.1,0.3-0.1,0.4-0.1c0,0,0.1,0,0.1,0.1
				C29.9,141.8,29.9,141.9,29.8,142z"/>
		</g>
		<g>
			<path fill="#231F20" d="M80.6,140.3c0,0.1,0,0.2-0.2,0.3l-1.4,0.6c-0.1,0.1-0.3,0.1-0.3,0s0-0.2,0.1-0.2c0.1-0.1,0.1-0.2,0.1-0.3
				s0-0.3-0.3-0.9l-1.2-2.5l0,0l0,0l0.1,3.7c0,0.1,0,0.2-0.1,0.2l-0.2,0.1c-0.1,0-0.1,0-0.2,0l-2.8-2.5l0,0l0,0
				c0.1,0.2,1,2.1,1.3,2.8c0.3,0.6,0.5,0.7,0.8,0.7c0.1,0,0.3,0,0.3,0.1s0,0.2-0.2,0.3l-1.2,0.5c-0.2,0.1-0.3,0.1-0.3,0
				c-0.1-0.1,0.1-0.2,0.1-0.4c0.1-0.2,0-0.6-0.3-1.3c-0.3-0.6-1.1-2.4-1.2-2.6c0-0.1-0.1-0.1-0.1-0.2c0,0-0.1,0-0.2,0
				s-0.3,0-0.4-0.1c0-0.1,0-0.2,0.2-0.3l1.1-0.5c0.2-0.1,0.2-0.1,0.3,0l2.4,2.1l0,0l0,0l-0.1-3.2c0-0.1,0.1-0.2,0.1-0.2L78,136
				c0.1-0.1,0.2,0,0.3,0c0.1,0.1,0,0.2-0.1,0.3c-0.1,0.2,0,0.4,0.1,0.8l1.2,2.5c0.2,0.5,0.3,0.6,0.4,0.7c0.1,0.1,0.2,0.1,0.3,0.1
				C80.5,140.2,80.5,140.2,80.6,140.3z"/>
			<path fill="#231F20" d="M84.7,137.2c0,0.1,0,0.1,0.1,0.2c0.1,0.5,0.3,0.9,0.1,1.1c0,0.1-0.1,0.1-0.2,0.2
				c-0.2,0.1-0.5,0.2-1.2,0.5l-1.9,0.9c-0.1,0.1-0.3,0.1-0.3,0s0-0.2,0.1-0.2c0.1-0.1,0.1-0.2,0.1-0.4c0-0.1,0-0.3-0.2-0.7l-1.2-2.6
				c-0.1-0.3-0.2-0.5-0.5-0.5c-0.1,0-0.3,0-0.3-0.1s0-0.2,0.1-0.2l1.8-0.8c0.8-0.3,1.2-0.6,1.4-0.7c0.2-0.1,0.3,0,0.3,0.1
				c0.1,0.1,0.2,0.3,0.2,0.5c0.1,0.1,0.2,0.4,0.3,0.5c0.1,0.2,0,0.3-0.1,0.3c-0.2,0.1-0.2,0-0.4-0.1c-0.1-0.1-0.3-0.3-0.6-0.3
				c-0.3,0-0.6,0.1-1,0.3l-0.3,0.1c-0.1,0.1-0.1,0.1-0.1,0.2l0.6,1.3c0.1,0.2,0.2,0.1,0.4,0l0,0c0.2-0.1,0.3-0.2,0.5-0.3
				c0.3-0.2,0.5-0.3,0.6-0.3c0.1-0.1,0.2-0.1,0.3,0v0.1c0,0.1,0.1,0.2,0,0.3c0,0.1-0.1,0.1-0.3,0.2c-0.3,0.1-0.5,0.2-0.9,0.4
				c-0.1,0.1-0.3,0.1-0.4,0.2c-0.1,0-0.1,0.1-0.1,0.1l0.5,1.1c0.2,0.3,0.2,0.5,0.4,0.5c0.1,0,0.2,0,0.4-0.1c0.2-0.1,0.4-0.2,0.6-0.3
				c0.4-0.3,0.5-0.6,0.6-1.1c0-0.2,0.1-0.3,0.2-0.4h0.1C84.6,137,84.6,137.1,84.7,137.2z"/>
			<path fill="#231F20" d="M88.3,131.1c0.2-0.1,0.3-0.1,0.3,0c0.1,0.1-0.1,0.2-0.1,0.3c-0.1,0.2-0.2,0.3,0,0.9
				c0.2,0.5,1.5,3.5,1.7,3.7c0,0.1,0,0.1-0.1,0.1l-0.5,0.2c-0.1,0-0.2,0-0.2,0l-4.1-2.4l0,0l0,0c0.3,0.6,1,2.1,1.1,2.4
				c0.3,0.6,0.6,0.6,0.8,0.6c0.1,0,0.3,0,0.3,0.1s0,0.2-0.2,0.3l-1.3,0.6c-0.2,0.1-0.3,0.1-0.3,0c-0.1-0.1,0.1-0.2,0.1-0.3
				c0.1-0.2,0.2-0.4,0-1c-0.1-0.3-1.3-2.9-1.4-3.1c0-0.1-0.1-0.1-0.1-0.1c-0.1,0-0.2,0-0.3-0.1c-0.2,0-0.4,0.1-0.5-0.1
				c0-0.1,0-0.2,0.2-0.3l0.9-0.4c0.2-0.1,0.3-0.1,0.4,0l4,2.3l0,0l0,0c-0.3-0.8-0.9-1.9-1.1-2.4c-0.3-0.6-0.5-0.6-0.7-0.6
				c-0.1,0-0.3,0-0.4-0.1c0-0.1,0-0.2,0.2-0.3L88.3,131.1z"/>
			<path fill="#231F20" d="M93.3,130.5c-0.1,0-0.2,0-0.4-0.1c-0.2-0.1-0.4-0.3-0.6-0.4c-0.2,0-0.4,0-0.7,0.1
				c-0.1,0.1-0.1,0.1-0.1,0.2l1.4,3c0.2,0.5,0.3,0.6,0.4,0.7c0.1,0.1,0.3,0.1,0.3,0.1c0.1,0,0.2,0,0.2,0.1s0,0.2-0.2,0.3l-1.4,0.6
				c-0.1,0.1-0.2,0.1-0.3,0c0-0.1,0-0.2,0.1-0.2c0.1-0.1,0.1-0.2,0.1-0.3s0-0.3-0.3-0.8l-1.4-3c0-0.1-0.1-0.1-0.2-0.1
				c-0.2,0.1-0.4,0.2-0.5,0.4c-0.2,0.3-0.1,0.5-0.1,0.7s0,0.3-0.1,0.4c-0.2,0.1-0.3,0.1-0.4-0.1c0-0.1-0.1-0.2-0.2-0.4
				s-0.2-0.5-0.3-0.6c-0.1-0.2,0-0.3,0.2-0.3c0.2-0.1,0.7-0.3,1.3-0.5l1-0.4c0.6-0.3,1-0.5,1.3-0.6c0.2-0.1,0.3-0.1,0.4,0.1
				c0.1,0.1,0.2,0.4,0.3,0.6c0.1,0.1,0.1,0.3,0.2,0.4C93.5,130.3,93.5,130.4,93.3,130.5z"/>
			<path fill="#231F20" d="M98.8,130.7c0,0.1,0,0.1,0.1,0.2c0.1,0.5,0.3,0.9,0.1,1.1c0,0.1-0.1,0.1-0.2,0.2
				c-0.2,0.1-0.5,0.2-1.2,0.5l-1.9,0.9c-0.1,0.1-0.3,0.1-0.3,0s0-0.2,0.1-0.2c0.1-0.1,0.1-0.2,0.1-0.4c0-0.1,0-0.3-0.2-0.7l-1.2-2.6
				c-0.1-0.3-0.2-0.5-0.5-0.5c-0.1,0-0.3,0-0.3-0.1s0-0.2,0.1-0.2l1.8-0.8c0.8-0.3,1.2-0.6,1.4-0.7c0.2-0.1,0.3,0,0.3,0.1
				c0.1,0.1,0.2,0.3,0.2,0.5c0.1,0.1,0.2,0.4,0.3,0.5c0.1,0.2,0,0.3-0.1,0.3c-0.2,0.1-0.2,0-0.4-0.1c-0.1-0.1-0.3-0.3-0.6-0.3
				c-0.3,0-0.6,0.1-1,0.3l-0.3,0.1c-0.1,0.1-0.1,0.1-0.1,0.2l0.6,1.3c0.1,0.2,0.2,0.1,0.4,0l0,0c0.2-0.1,0.3-0.2,0.5-0.3
				c0.3-0.2,0.5-0.3,0.6-0.3c0.1-0.1,0.2-0.1,0.3,0v0.1c0,0.1,0.1,0.2,0,0.3c0,0.1-0.1,0.1-0.3,0.2c-0.3,0.1-0.5,0.2-0.9,0.4
				c-0.1,0.1-0.3,0.1-0.4,0.2c-0.1,0-0.1,0.1-0.1,0.1l0.5,1.1c0.2,0.3,0.2,0.5,0.4,0.5c0.1,0,0.2,0,0.4-0.1c0.2-0.1,0.4-0.2,0.6-0.3
				c0.4-0.3,0.5-0.6,0.6-1.1c0-0.2,0.1-0.3,0.2-0.4h0.1C98.7,130.6,98.8,130.6,98.8,130.7z"/>
		</g>
		<g>
			<path fill="#231F20" d="M41.1,155.3c0,0.1-0.1,0.1-0.3,0.1l-1.5-0.3c-0.1,0-0.2-0.1-0.2-0.2c0-0.1,0.1-0.1,0.2-0.2
				c0.1,0,0.2-0.1,0.3-0.2c0.1-0.1,0.1-0.2,0.3-1l0.5-2.7l0,0l0,0l-2.1,3.1c-0.1,0.1-0.1,0.1-0.2,0.1h-0.3c-0.1,0-0.1,0-0.2-0.2
				l-0.8-3.6l0,0l0,0c0,0.3-0.4,2.3-0.5,3s0.1,0.9,0.3,1c0.1,0.1,0.2,0.2,0.2,0.3s-0.1,0.2-0.3,0.1l-1.3-0.2c-0.2,0-0.3-0.1-0.2-0.2
				c0-0.1,0.2-0.1,0.3-0.3c0.2-0.2,0.3-0.5,0.5-1.3c0.1-0.6,0.5-2.6,0.5-2.8c0-0.1,0-0.1,0-0.2c0-0.1-0.1-0.1-0.1-0.2
				c-0.1-0.1-0.3-0.1-0.2-0.3c0-0.1,0.1-0.1,0.3-0.1l1.2,0.2c0.2,0,0.2,0.1,0.3,0.2l0.7,3.1l0,0l0,0l1.8-2.6
				c0.1-0.1,0.2-0.1,0.3-0.1l1.3,0.2c0.1,0,0.2,0.1,0.2,0.2c0,0.1-0.1,0.1-0.3,0.2c-0.2,0.1-0.3,0.3-0.3,0.7l-0.5,2.7
				c-0.1,0.5-0.1,0.7-0.1,0.8s0.1,0.2,0.2,0.3C41.1,155.1,41.1,155.2,41.1,155.3z"/>
			<path fill="#231F20" d="M47.2,155.9c0,0.1-0.1,0.2-0.3,0.1l-1.5-0.1c-0.1,0-0.2-0.1-0.2-0.2c0-0.1,0.1-0.1,0.1-0.1
				c0.1,0,0.1-0.1,0.2-0.1c0,0,0.1-0.1,0.1-0.2c0-0.1,0-0.2-0.1-0.4l-0.2-0.7c0-0.1-0.1-0.1-0.2-0.1l-1.8-0.2c-0.1,0-0.1,0-0.1,0.1
				c-0.2,0.4-0.3,0.7-0.3,0.9c0,0.1,0,0.1,0,0.2c0.1,0.1,0.1,0.2,0.2,0.2c0.1,0.1,0.1,0.1,0.1,0.2c0,0.1-0.1,0.1-0.3,0.1l-1.1-0.1
				c-0.1,0-0.2-0.1-0.2-0.2c0-0.1,0.1-0.1,0.1-0.2c0.1-0.1,0.2-0.1,0.4-0.4c0.1-0.2,0.3-0.4,0.4-0.6l2.1-3.7c0-0.1,0.1-0.1,0.2-0.1
				h0.4c0.1,0,0.1,0,0.1,0.1c0.1,0.3,1.1,4,1.2,4.4c0.1,0.4,0.2,0.5,0.3,0.6s0.1,0.1,0.2,0.2C47.1,155.8,47.2,155.8,47.2,155.9z
				 M43.7,153.3l-0.1,0.1c0,0,0,0,0.1,0.1l1.4,0.1h0.1c0,0,0,0,0-0.1l-0.5-1.9l0,0l0,0L43.7,153.3z"/>
			<path fill="#231F20" d="M53,150.9c0.2,0,0.3,0.1,0.3,0.2c0,0.1-0.2,0.2-0.3,0.2c-0.2,0.1-0.3,0.2-0.4,0.9c0,0.5-0.2,3.8-0.2,4
				c0,0.1,0,0.1-0.1,0.1h-0.5c-0.1,0-0.2,0-0.2-0.1l-2.6-4l0,0l0,0c0,0.6-0.1,2.3-0.1,2.6c0,0.6,0.2,0.8,0.4,0.9
				c0.1,0.1,0.3,0.1,0.3,0.2c0,0.1-0.1,0.2-0.3,0.2h-1.5c-0.2,0-0.3-0.1-0.3-0.2c0-0.1,0.2-0.2,0.3-0.2c0.2-0.1,0.4-0.2,0.4-0.9
				c0-0.3,0.1-3.2,0.1-3.3s0-0.1,0-0.1c-0.1-0.1-0.1-0.1-0.2-0.2c-0.2-0.1-0.4-0.1-0.4-0.3c0-0.1,0.1-0.2,0.3-0.2h1
				c0.2,0,0.3,0.1,0.3,0.2l2.5,3.8l0,0l0,0c0-0.8,0.1-2.1,0-2.6c0-0.6-0.2-0.8-0.3-0.9c-0.1-0.1-0.3-0.1-0.3-0.2
				c0-0.1,0.1-0.2,0.3-0.2L53,150.9z"/>
			<path fill="#231F20" d="M58.9,150.8c0,0.1-0.1,0.2-0.2,0.2c-0.2,0.1-0.3,0.2-0.3,0.9c0,0.3,0.1,1.6,0.1,2.2c0,0.3,0,0.6-0.1,0.9
				c-0.2,0.8-0.9,1.2-1.9,1.3c-0.8,0-1.7-0.2-2.1-1c-0.1-0.3-0.2-0.6-0.2-0.9l-0.1-2.3c0-0.4,0-0.6-0.2-0.7
				c-0.1-0.1-0.3-0.1-0.3-0.2c0-0.1,0.1-0.2,0.2-0.2l1.5-0.1c0.2,0,0.2,0.1,0.2,0.1c0,0.1-0.1,0.2-0.2,0.2c-0.2,0.1-0.2,0.3-0.2,0.7
				l0.1,2.2c0,0.3,0.1,0.6,0.1,0.8c0.2,0.5,0.6,0.7,1.3,0.7c0.8,0,1.3-0.5,1.3-1.5c0-0.3,0-0.6,0-1s0-0.9-0.1-1.1
				c-0.1-0.6-0.2-0.7-0.4-0.8c-0.1-0.1-0.3-0.1-0.3-0.2c0-0.1,0.1-0.2,0.3-0.2l1.3-0.1C58.8,150.6,58.9,150.7,58.9,150.8z"/>
			<path fill="#231F20" d="M65.5,153.9c0,0.1,0,0.1,0,0.2c-0.1,0.5,0,0.9-0.2,1.1c-0.1,0.1-0.1,0.1-0.2,0.1c-0.2,0-0.6,0-1.3,0.1
				l-2,0.3c-0.1,0-0.3,0-0.3-0.1s0.1-0.2,0.1-0.2c0.1-0.1,0.2-0.2,0.2-0.3s0.1-0.3,0-0.8l-0.4-2.9c0-0.3-0.1-0.5-0.3-0.6
				c-0.1-0.1-0.3-0.1-0.3-0.2c0-0.1,0.1-0.2,0.2-0.2l1.9-0.3c0.8-0.1,1.3-0.2,1.5-0.2s0.3,0.1,0.3,0.2c0,0.1,0.1,0.4,0.1,0.5
				s0.1,0.4,0.1,0.6c0,0.2-0.1,0.3-0.2,0.3c-0.2,0-0.2,0-0.4-0.2c-0.1-0.1-0.2-0.4-0.5-0.5c-0.2-0.1-0.6-0.1-1.1,0h-0.3
				c-0.1,0-0.2,0.1-0.2,0.2l0.2,1.4c0,0.2,0.2,0.2,0.4,0.2l0,0c0.2,0,0.4-0.1,0.6-0.1c0.3-0.1,0.6-0.1,0.7-0.1s0.2,0,0.3,0.1
				c0,0,0,0.1,0,0.2c0,0.1,0,0.2-0.1,0.3c0,0-0.1,0.1-0.3,0.1c-0.3,0-0.5,0-1,0.1c-0.1,0-0.3,0-0.4,0.1c-0.1,0-0.1,0.1-0.1,0.1
				l0.2,1.2c0,0.4,0.1,0.6,0.2,0.6c0.1,0,0.3,0,0.4,0c0.2,0,0.5-0.1,0.6-0.1c0.5-0.2,0.7-0.4,0.9-0.9c0.1-0.2,0.2-0.3,0.3-0.3h0.1
				C65.5,153.7,65.5,153.8,65.5,153.9z"/>
			<path fill="#231F20" d="M69.6,150.5c-0.1,0-0.2,0-0.3-0.2c-0.1-0.2-0.3-0.4-0.5-0.5s-0.4-0.1-0.7,0c-0.1,0-0.1,0.1-0.1,0.2
				l0.7,3.2c0.1,0.5,0.2,0.7,0.2,0.8c0.1,0.1,0.2,0.2,0.3,0.2c0.1,0,0.2,0.1,0.2,0.2c0,0.1-0.1,0.2-0.2,0.2l-1.5,0.3
				c-0.1,0-0.3,0-0.3-0.1s0-0.2,0.1-0.2c0.1-0.1,0.2-0.2,0.2-0.3s0-0.3-0.1-0.8l-0.7-3.2c0-0.1,0-0.2-0.2-0.1
				c-0.3,0.1-0.5,0.1-0.6,0.3c-0.2,0.2-0.3,0.5-0.3,0.7s-0.1,0.3-0.2,0.3c-0.2,0-0.3,0-0.3-0.2c0-0.1,0-0.3-0.1-0.4
				c0-0.2-0.1-0.5-0.1-0.6c0-0.2,0.1-0.3,0.3-0.3c0.3-0.1,0.8-0.1,1.4-0.2l1.1-0.2c0.6-0.1,1.1-0.3,1.4-0.3c0.2,0,0.3,0,0.4,0.2
				c0,0.1,0.1,0.4,0.1,0.6c0,0.2,0.1,0.3,0.1,0.4C69.8,150.4,69.8,150.5,69.6,150.5z"/>
		</g>
	</g>
	<g>
		<path fill="#FFFFFF" d="M489.6,101c-1.3,0.6-2.9,1.2-4.7,1.7c-1.8,0.5-3.9,1-6.2,1.4c-2.3,0.4-4.6,0.6-7.1,0.6
			c-5.3,0-10.2-0.8-14.6-2.3c-4.5-1.5-8.3-3.8-11.6-6.9c-3.2-3.1-5.8-6.8-7.6-11.3c-1.8-4.4-2.8-9.5-2.8-15.2
			c0-5.7,0.9-10.7,2.8-15.2c1.8-4.4,4.4-8.2,7.7-11.3c3.3-3.1,7.3-5.4,11.9-7c4.6-1.6,9.7-2.4,15.2-2.4c4.4,0,8.4,0.5,12.1,1.4
			c3.6,0.9,6.9,2,9.7,3.3c-0.5,0.9-1,2.2-1.3,3.8c-0.3,1.6-0.6,2.9-0.8,4l-0.6,0.2c-0.7-0.8-1.6-1.7-2.8-2.7c-1.2-1-2.6-2-4.2-2.9
			c-1.6-0.9-3.4-1.7-5.4-2.4c-2-0.6-4.2-1-6.6-1c-3.9,0-7.6,0.6-11,1.9c-3.4,1.3-6.3,3.2-8.8,5.9c-2.5,2.6-4.5,6-5.9,10
			c-1.4,4-2.1,8.8-2.1,14.4c0,5.6,0.7,10.3,2.1,14.4c1.4,4,3.4,7.4,5.9,10c2.5,2.6,5.5,4.6,8.8,5.9c3.4,1.3,7,1.9,11,1.9
			c2.4,0,4.6-0.3,6.7-0.9c2-0.6,3.9-1.3,5.6-2.2c1.7-0.8,3.2-1.7,4.6-2.7c1.4-1,2.5-1.8,3.5-2.6l0.4,0.4l-0.9,5.9
			C491.9,99.8,490.9,100.4,489.6,101z"/>
		<path fill="#FFFFFF" d="M497.1,79.7c0-4.5,0.7-8.4,2.2-11.6c1.4-3.2,3.3-5.7,5.7-7.7c2.3-2,5-3.4,7.9-4.3c2.9-0.9,5.8-1.4,8.7-1.4
			c2.9,0,5.8,0.5,8.7,1.4c2.9,0.9,5.5,2.3,7.8,4.3c2.3,2,4.2,4.5,5.7,7.7c1.4,3.2,2.2,7,2.2,11.6c0,4.5-0.7,8.4-2.2,11.6
			c-1.4,3.2-3.3,5.8-5.7,7.7c-2.3,2-5,3.4-7.8,4.2c-2.9,0.8-5.8,1.2-8.7,1.2c-2.9,0-5.8-0.4-8.7-1.2c-2.9-0.8-5.5-2.2-7.9-4.2
			c-2.3-2-4.2-4.5-5.7-7.7C497.8,88.1,497.1,84.3,497.1,79.7z M505.9,79.7c0,2.8,0.3,5.5,0.8,8.1c0.5,2.6,1.4,4.9,2.6,7
			c1.2,2,2.8,3.7,4.8,4.9c2,1.2,4.5,1.8,7.4,1.8c2.9,0,5.4-0.6,7.4-1.8c2-1.2,3.6-2.8,4.8-4.9c1.2-2,2.1-4.4,2.6-7
			c0.5-2.6,0.8-5.3,0.8-8.1c0-2.8-0.3-5.5-0.8-8.1c-0.5-2.6-1.4-4.9-2.6-7c-1.2-2-2.8-3.7-4.8-4.9s-4.5-1.8-7.4-1.8
			c-2.9,0-5.4,0.6-7.4,1.8c-2,1.2-3.6,2.8-4.8,4.9c-1.2,2-2.1,4.4-2.6,7C506.2,74.2,505.9,76.9,505.9,79.7z"/>
		<path fill="#FFFFFF" d="M555.4,49.2c0-2.7-0.1-5.3-0.2-7.9c-0.1-2.6-0.2-5.1-0.3-7.5c-0.1-2.4-0.2-4.4-0.4-6.1
			c1.9,0.3,3.4,0.5,4.5,0.5c1.1,0,2.6-0.2,4.5-0.5c-0.1,1.7-0.3,3.7-0.4,6.1c-0.1,2.4-0.2,4.9-0.3,7.5c-0.1,2.6-0.1,5.3-0.2,7.9
			c0,2.7-0.1,5.1-0.1,7.4v18.2c0,2.3,0,4.7,0.1,7.4c0,2.7,0.1,5.3,0.2,7.9c0.1,2.6,0.1,5.1,0.3,7.4c0.1,2.3,0.2,4.3,0.4,5.8
			c-1.5-0.1-3-0.2-4.5-0.2c-1.5,0-3,0.1-4.5,0.2c0.1-1.5,0.3-3.5,0.4-5.8c0.1-2.3,0.2-4.8,0.3-7.4c0.1-2.6,0.1-5.2,0.2-7.9
			c0-2.7,0-5.1,0-7.4V56.6C555.4,54.4,555.4,51.9,555.4,49.2z"/>
		<path fill="#FFFFFF" d="M575.4,49.2c0-2.7-0.1-5.3-0.2-7.9c-0.1-2.6-0.2-5.1-0.3-7.5c-0.1-2.4-0.2-4.4-0.4-6.1
			c1.9,0.3,3.4,0.5,4.5,0.5c1.1,0,2.6-0.2,4.5-0.5c-0.1,1.7-0.3,3.7-0.4,6.1c-0.1,2.4-0.2,4.9-0.3,7.5c-0.1,2.6-0.1,5.3-0.2,7.9
			c0,2.7-0.1,5.1-0.1,7.4v18.2c0,2.3,0,4.7,0.1,7.4c0,2.7,0.1,5.3,0.2,7.9c0.1,2.6,0.1,5.1,0.3,7.4c0.1,2.3,0.2,4.3,0.4,5.8
			c-1.5-0.1-3-0.2-4.5-0.2c-1.5,0-3,0.1-4.5,0.2c0.1-1.5,0.3-3.5,0.4-5.8c0.1-2.3,0.2-4.8,0.3-7.4c0.1-2.6,0.1-5.2,0.2-7.9
			c0-2.7,0-5.1,0-7.4V56.6C575.4,54.4,575.4,51.9,575.4,49.2z"/>
		<path fill="#FFFFFF" d="M592.5,81.1c0-8.2,2-14.7,5.9-19.4c3.9-4.7,9.6-7,17.1-7c3.5,0,6.6,0.6,9.2,1.7c2.6,1.1,4.7,2.6,6.5,4.4
			c1.7,1.8,3,4,3.9,6.5c0.8,2.5,1.3,5.1,1.3,7.9c0,0.7,0,1.3,0,2c0,0.6-0.1,1.3-0.2,2c-3.6-0.1-7.2-0.1-10.7-0.2
			c-3.5-0.1-7.1-0.1-10.7-0.1c-2.2,0-4.4,0-6.6,0.1c-2.2,0.1-4.4,0.1-6.6,0.2c-0.1,0.3-0.1,0.8-0.1,1.5v1.3c0,2.6,0.4,5,1.2,7.3
			c0.8,2.3,1.9,4.2,3.4,5.9c1.5,1.6,3.3,2.9,5.4,3.9c2.1,1,4.6,1.5,7.4,1.5c1.3,0,2.7-0.2,4.1-0.6c1.4-0.4,2.8-0.9,4.1-1.5
			c1.3-0.6,2.6-1.4,3.8-2.3c1.2-0.9,2.2-1.8,3.1-2.8l0.5,0.3l-0.6,4.9c-2,1.6-4.5,3-7.5,4.1c-3,1.1-6.1,1.7-9.3,1.7
			c-3.6,0-6.9-0.6-9.9-1.7c-3-1.1-5.6-2.7-7.7-4.8c-2.2-2.1-3.8-4.6-5-7.5C593.1,87.6,592.5,84.5,592.5,81.1z M615.7,58
			c-2.5,0-4.6,0.6-6.3,1.7c-1.7,1.1-3.1,2.6-4.2,4.3c-1.1,1.7-1.9,3.6-2.5,5.6c-0.6,2-0.9,4-1.1,5.8c2.1,0.1,4.2,0.1,6.5,0.2
			c2.2,0.1,4.4,0.1,6.6,0.1c2.2,0,4.4,0,6.7-0.1c2.3-0.1,4.5-0.1,6.6-0.2c0-1.8-0.2-3.7-0.5-5.7c-0.3-2-0.9-3.9-1.8-5.6
			c-0.9-1.7-2.2-3.2-3.8-4.3C620.4,58.5,618.3,58,615.7,58z"/>
		<path fill="#FFFFFF" d="M643.8,71.1c0-2.8,0.5-5.2,1.5-7.3c1-2,2.4-3.7,4.2-5.1c1.8-1.3,3.8-2.3,6.1-3c2.3-0.7,4.8-1,7.4-1
			c1.3,0,2.5,0,3.7,0.1c1.2,0.1,2.7,0.2,4.5,0.3c1.5,0.1,2.9,0.2,4.1,0.3c1.2,0.1,2.2,0.1,2.9,0.1c3.7,0,6.5-0.2,8.1-0.5
			c-0.1,0.3-0.1,0.7-0.2,1.1c0,0.4-0.1,0.7-0.1,1.1c0,0.3,0,0.7,0.1,1.1c0,0.4,0.1,0.7,0.2,1.1c-1.9-0.1-3.8-0.3-5.7-0.5
			c-1.8-0.2-3.7-0.3-5.5-0.4l-0.2,0.2c2.1,1.1,3.7,2.9,5,5.3c1.3,2.4,1.9,4.8,1.9,7.4c0,5-1.7,8.9-5.1,11.8
			c-3.4,2.8-7.9,4.3-13.6,4.3c-0.9,0-1.9,0-2.8-0.1c-0.9-0.1-1.8-0.1-2.8-0.1c-1.2,0-2.3,0.4-3.4,1.3c-1,0.9-1.6,2-1.6,3.3
			c0,1.7,0.4,3,1.3,3.8c0.8,0.8,2.4,1.2,4.7,1.3c1.9,0.1,3.7,0.1,5.5,0.1c1.8,0,3.6,0.1,5.5,0.2c3.1,0.1,5.7,0.4,7.9,1.1
			c2.2,0.7,3.9,1.6,5.3,2.7c1.4,1.1,2.4,2.4,3,3.9c0.6,1.5,1,3.1,1,4.8c0,2.3-0.5,4.7-1.4,7.1c-0.9,2.4-2.3,4.6-4.2,6.5
			c-1.9,1.9-4.4,3.5-7.4,4.8c-3,1.3-6.6,1.9-10.8,1.9c-6.5,0-11.6-1.3-15.3-3.9c-3.7-2.6-5.6-6.1-5.6-10.6c0-1.7,0.3-3.3,1-4.8
			c0.6-1.5,1.5-2.8,2.5-3.9c1-1.1,2.1-2,3.4-2.7c1.3-0.7,2.6-1.2,3.9-1.5v-0.2c-2.1-0.6-3.6-1.6-4.7-3c-1.1-1.4-1.6-3.1-1.6-5
			c0-1.1,0.2-2.2,0.7-3.1c0.4-0.9,1-1.8,1.7-2.5c0.7-0.7,1.4-1.3,2.3-1.8c0.9-0.5,1.7-0.8,2.5-0.9v-0.2c-3.1-1.3-5.5-3.2-7.2-5.7
			C644.7,77.8,643.8,74.8,643.8,71.1z M679.4,114c0-4-1.2-6.8-3.5-8.4c-2.3-1.6-6.2-2.4-11.6-2.4c-5,0-8.9,0.8-11.6,2.5
			c-2.7,1.6-4.1,4.6-4.1,8.9c0,2.3,0.4,4.2,1.2,5.8c0.8,1.6,1.8,2.9,3.1,3.9c1.3,1,2.9,1.7,4.7,2.2c1.8,0.5,3.7,0.7,5.8,0.7
			c2,0,4-0.3,5.9-0.8c1.9-0.5,3.7-1.3,5.2-2.4c1.5-1.1,2.7-2.4,3.7-4.1C679,118.3,679.4,116.3,679.4,114z M674,70.6
			c0-4.2-1-7.4-3-9.6c-2-2.2-4.6-3.3-7.9-3.3c-3.6,0-6.4,1.2-8.4,3.7c-2,2.4-3,5.7-3,9.8c0,4.2,0.9,7.5,2.8,10
			c1.8,2.4,4.7,3.7,8.6,3.7c1.9,0,3.6-0.4,5-1.2c1.4-0.8,2.5-1.8,3.4-3.1c0.9-1.3,1.6-2.8,2-4.5C673.8,74.3,674,72.5,674,70.6z"/>
		<path fill="#FFFFFF" d="M688.4,81.1c0-8.2,2-14.7,5.9-19.4c3.9-4.7,9.6-7,17.1-7c3.5,0,6.6,0.6,9.2,1.7c2.6,1.1,4.7,2.6,6.5,4.4
			c1.7,1.8,3,4,3.9,6.5c0.8,2.5,1.3,5.1,1.3,7.9c0,0.7,0,1.3,0,2c0,0.6-0.1,1.3-0.2,2c-3.6-0.1-7.2-0.1-10.7-0.2
			c-3.5-0.1-7.1-0.1-10.7-0.1c-2.2,0-4.4,0-6.6,0.1c-2.2,0.1-4.4,0.1-6.6,0.2c-0.1,0.3-0.1,0.8-0.1,1.5v1.3c0,2.6,0.4,5,1.2,7.3
			c0.8,2.3,1.9,4.2,3.4,5.9c1.5,1.6,3.3,2.9,5.4,3.9c2.1,1,4.6,1.5,7.4,1.5c1.3,0,2.7-0.2,4.1-0.6c1.4-0.4,2.8-0.9,4.1-1.5
			c1.3-0.6,2.6-1.4,3.8-2.3c1.2-0.9,2.2-1.8,3.1-2.8l0.5,0.3l-0.6,4.9c-2,1.6-4.5,3-7.5,4.1c-3,1.1-6.1,1.7-9.3,1.7
			c-3.6,0-6.9-0.6-9.9-1.7c-3-1.1-5.6-2.7-7.7-4.8c-2.2-2.1-3.8-4.6-5-7.5C688.9,87.6,688.4,84.5,688.4,81.1z M711.5,58
			c-2.5,0-4.6,0.6-6.3,1.7c-1.7,1.1-3.1,2.6-4.2,4.3c-1.1,1.7-1.9,3.6-2.5,5.6c-0.6,2-0.9,4-1.1,5.8c2.1,0.1,4.2,0.1,6.5,0.2
			c2.2,0.1,4.4,0.1,6.6,0.1c2.2,0,4.4,0,6.7-0.1c2.3-0.1,4.5-0.1,6.6-0.2c0-1.8-0.2-3.7-0.5-5.7c-0.3-2-0.9-3.9-1.8-5.6
			c-0.9-1.7-2.2-3.2-3.8-4.3C716.2,58.5,714.1,58,711.5,58z"/>
	</g>
</g>
</svg>
